<svg width="21" height="24" viewBox="0 0 21 24" fill="none" xmlns="http://www.w3.org/2000/svg">
<path d="M20.4874 23.1217C20.4874 23.6068 20.0942 24 19.6095 24C19.1244 24 18.7312 23.6068 18.7312 23.1217C18.7312 18.4343 14.9311 14.6342 10.2437 14.6342C5.55624 14.6342 1.75614 18.4343 1.75614 23.1217C1.75614 23.6068 1.36294 24 0.877864 24C0.393201 24 0 23.6068 0 23.1217C0 17.4646 4.58615 12.878 10.2437 12.878C15.9013 12.878 20.4874 17.4646 20.4874 23.1217H20.4874ZM10.2436 12.2927C6.84932 12.2927 4.09732 9.54066 4.09732 6.14633C4.09732 2.752 6.84932 0 10.2436 0C13.638 0 16.39 2.752 16.39 6.14633C16.39 9.54066 13.638 12.2927 10.2436 12.2927ZM10.2436 10.5365C12.6682 10.5365 14.6338 8.57085 14.6338 6.14633C14.6338 3.72181 12.6682 1.75617 10.2436 1.75617C7.81913 1.75617 5.85349 3.72181 5.85349 6.14633C5.85349 8.57085 7.81913 10.5365 10.2436 10.5365Z" fill="white"/>
</svg>
