<svg id="42457400" viewBox="0 0 56 56" xmlns="http://www.w3.org/2000/svg" xmlns:xlink="http://www.w3.org/1999/xlink"><g transform="matrix(1,0,0,1,0,0)"><g id="42457400" opacity="1" style="mix-blend-mode:normal"><g><defs><clipPath id="42457400_clipPath" x="-50%" y="-50%" width="200%" height="200%"><path d="M0,56v-56h56v56z" fill="white" clip-rule="nonzero"></path></clipPath></defs><g clip-path="url(#42457400_clipPath)"><g transform="matrix(1,0,0,1,8.46,8.04)"><g id="42457401" opacity="1" style="mix-blend-mode:normal"><g><g><g transform="matrix(1,0,0,1,30.76,8.36)"><g id="42457402" opacity="0" style="mix-blend-mode:normal"><g><g><path id="42457402_fill_path" d="M0.77592,0.00431c0.47344,-0.04719 0.8956,0.29813 0.9428,0.77156c0.0475,0.47344 -0.29813,0.8956 -0.77156,0.9428c-0.47344,0.04719 -0.8956,-0.29813 -0.9428,-0.77156c-0.0475,-0.47313 0.29813,-0.89528 0.77156,-0.9428z" fill-rule="nonzero" fill="rgb(244, 242, 253)" fill-opacity="1" style="mix-blend-mode:NORMAL"></path></g></g></g></g><g transform="matrix(1,0,0,1,3.19,11.8)"><g id="42457403" opacity="0" style="mix-blend-mode:normal"><g><g><path id="42457403_fill_path" d="M0.77587,0.00431c0.47344,-0.04719 0.8956,0.29813 0.9428,0.77156c0.0472,0.47343 -0.29813,0.8956 -0.77156,0.9428c-0.47344,0.04719 -0.8956,-0.29813 -0.9428,-0.77156c-0.04719,-0.47344 0.29813,-0.8956 0.77156,-0.9428z" fill-rule="nonzero" fill="rgb(244, 242, 253)" fill-opacity="1" style="mix-blend-mode:NORMAL"></path></g></g></g></g><g transform="matrix(1,0,0,1,7.5,9.22)"><g id="42457404" opacity="0" style="mix-blend-mode:normal"><g><g><path id="42457404_fill_path" d="M0.77592,0.00431c0.47344,-0.04719 0.8956,0.29813 0.9428,0.77156c0.04719,0.47344 -0.29813,0.8956 -0.77156,0.9428c-0.47344,0.04719 -0.8956,-0.29813 -0.9428,-0.77156c-0.0475,-0.47313 0.29813,-0.89528 0.77156,-0.9428z" fill-rule="nonzero" fill="rgb(244, 242, 253)" fill-opacity="1" style="mix-blend-mode:NORMAL"></path></g></g></g></g><g transform="matrix(1,0,0,1,6.8,4.05)"><g id="42457405" opacity="0" style="mix-blend-mode:normal"><g><g><path id="42457405_fill_path" d="M0,0.17156l1.7144,-0.17156l0.17156,1.7144l-1.7144,0.17156z" fill-rule="nonzero" fill="rgb(244, 242, 253)" fill-opacity="1" style="mix-blend-mode:NORMAL"></path></g></g></g></g><g transform="matrix(1,0,0,1,34.73,10.78)"><g id="42457406" opacity="0" style="mix-blend-mode:normal"><g><g><path id="42457406_fill_path" d="M0,0.17156l1.71472,-0.17156l0.17156,1.7144l-1.71472,0.17156z" fill-rule="nonzero" fill="rgb(244, 242, 253)" fill-opacity="1" style="mix-blend-mode:NORMAL"></path></g></g></g></g><g transform="matrix(1,0,0,1,30.43,3.89)"><g id="42457407" opacity="0" style="mix-blend-mode:normal"><g><g><path id="42457407_fill_path" d="M0,0.17156l1.7144,-0.17156l0.17156,1.7144l-1.7144,0.17156z" fill-rule="nonzero" fill="rgb(244, 242, 253)" fill-opacity="1" style="mix-blend-mode:NORMAL"></path></g></g></g></g><g transform="matrix(1,0,0,1,0,39.9755)"><g id="42517994" opacity="0" style="mix-blend-mode:normal"><g><g><g transform="matrix(1,0,0,1,36.1847,5.2972)"><g id="42457408" opacity="1" style="mix-blend-mode:normal"><g><g><path id="42457408_fill_path" d="M0.60313,15.72466c-0.33313,0 -0.60313,-0.27 -0.60313,-0.60313l0.00031,-14.5184c0,-0.33313 0.27,-0.60313 0.60313,-0.60313c0.33313,0 0.60313,0.27 0.60313,0.60313l-0.00031,14.5184c0,0.33313 -0.27,0.60313 -0.60313,0.60313z" fill-rule="nonzero" fill="rgb(244, 242, 253)" fill-opacity="1" style="mix-blend-mode:NORMAL"></path></g></g></g></g><g transform="matrix(1,0,0,1,1.7238999999999987,5.2972)"><g id="42457409" opacity="1" style="mix-blend-mode:normal"><g><g><path id="42457409_fill_path" d="M0.60313,15.72466c-0.33313,0 -0.60313,-0.27 -0.60313,-0.60313v-14.5184c0,-0.33313 0.27,-0.60313 0.60313,-0.60313c0.33313,0 0.60313,0.27 0.60313,0.60313l-0.00031,14.5184c0,0.33313 -0.27,0.60313 -0.60282,0.60313z" fill-rule="nonzero" fill="rgb(244, 242, 253)" fill-opacity="1" style="mix-blend-mode:NORMAL"></path></g></g></g></g><g transform="matrix(1,0,0,1,0.0016999999999995907,0)"><g id="42457410" opacity="1" style="mix-blend-mode:normal"><g><g><path id="42457410_fill_path" d="M36.40376,6.53872c-0.84936,0 -1.60872,-0.39313 -2.10592,-1.00688c-0.49718,0.61375 -1.25656,1.00688 -2.10592,1.00688c-0.84936,0 -1.60904,-0.39313 -2.10592,-1.00688c-0.49718,0.61375 -1.25656,1.00688 -2.10592,1.00688c-0.84936,0 -1.60904,-0.39313 -2.10592,-1.00688c-0.49718,0.61375 -1.25656,1.00688 -2.10592,1.00688c-0.84936,0 -1.60872,-0.39313 -2.10592,-1.00688c-0.49718,0.61375 -1.25656,1.00688 -2.10592,1.00688c-0.84936,0 -1.60872,-0.39313 -2.10592,-1.00688c-0.49718,0.61375 -1.25656,1.00688 -2.10592,1.00688c-0.84936,0 -1.60904,-0.39313 -2.10592,-1.00688c-0.49687,0.61375 -1.25656,1.00688 -2.10592,1.00688c-0.84936,0 -1.60872,-0.39313 -2.10592,-1.00688c-0.49718,0.61375 -1.25656,1.00688 -2.10592,1.00688c-0.84936,0 -1.60904,-0.39313 -2.10592,-1.00688c-0.49718,0.61375 -1.25656,1.00688 -2.10592,1.00688c-1.49376,0 -2.70904,-1.21528 -2.70904,-2.70904c-0.00031,-0.96688 0.38562,-1.93624 1.0584,-2.65872c0.70313,-0.755 1.62904,-1.17096 2.6072,-1.17096h31.7816c1.9872,0 3.66624,1.75376 3.66624,3.82968c0,1.49376 -1.21504,2.70904 -2.70904,2.70904zM34.90096,3.82968c0,0.82872 0.67406,1.5028 1.5028,1.5028c0.82874,0 1.5028,-0.67406 1.5028,-1.5028c0,-1.39752 -1.14936,-2.62344 -2.46,-2.62344h-31.7816c-0.63969,0 -1.25216,0.27938 -1.72472,0.78687c-0.46718,0.50187 -0.73531,1.17128 -0.735,1.83656c0,0.82872 0.67438,1.5028 1.5028,1.5028c0.82872,0 1.5028,-0.67406 1.5028,-1.5028c0,-0.33313 0.27,-0.60313 0.60313,-0.60313c0.33313,0 0.60313,0.27 0.60313,0.60313c0,0.82872 0.67438,1.5028 1.5028,1.5028c0.82872,0 1.5028,-0.67406 1.5028,-1.5028c0,-0.33313 0.27,-0.60313 0.60313,-0.60313c0.33313,0 0.60313,0.27 0.60313,0.60313c0,0.82872 0.67406,1.5028 1.5028,1.5028c0.82874,0 1.5028,-0.67406 1.5028,-1.5028c0,-0.33313 0.27,-0.60313 0.60313,-0.60313c0.33313,0 0.60313,0.27 0.60313,0.60313c0,0.82872 0.67438,1.5028 1.5028,1.5028c0.82872,0 1.5028,-0.67406 1.5028,-1.5028c0,-0.33313 0.27,-0.60313 0.60313,-0.60313c0.33313,0 0.60313,0.27 0.60313,0.60313c0,0.82872 0.67406,1.5028 1.5028,1.5028c0.82874,0 1.5028,-0.67406 1.5028,-1.5028c0,-0.33313 0.27,-0.60313 0.60313,-0.60313c0.33313,0 0.60313,0.27 0.60313,0.60313c0,0.82872 0.67406,1.5028 1.5028,1.5028c0.82872,0 1.5028,-0.67406 1.5028,-1.5028c0,-0.33313 0.27,-0.60313 0.60313,-0.60313c0.33313,0 0.60313,0.27 0.60313,0.60313c0,0.82872 0.67406,1.5028 1.5028,1.5028c0.82874,0 1.5028,-0.67406 1.5028,-1.5028c0,-0.33313 0.27,-0.60313 0.60313,-0.60313c0.33313,0 0.60313,0.27 0.60313,0.60313c0,0.82872 0.67406,1.5028 1.5028,1.5028c0.82872,0 1.5028,-0.67406 1.5028,-1.5028c0,-0.33313 0.27,-0.60313 0.60313,-0.60313c0.33344,0 0.60344,0.27 0.60344,0.60313z" fill-rule="nonzero" fill="rgb(244, 242, 253)" fill-opacity="1" style="mix-blend-mode:NORMAL"></path></g></g></g></g><g transform="matrix(1,0,0,1,1.7236999999999991,9.567400000000003)"><g id="42457411" opacity="1" style="mix-blend-mode:normal"><g><g><path id="42457411_fill_path" d="M20.99216,3.24971h-0.00031h-0.00031c-1.16248,0 -2.3228,-0.37218 -3.44904,-1.10688c-0.00063,-0.00031 -0.00125,-0.00094 -0.00188,-0.00125c-0.0025,-0.00156 -0.005,-0.00313 -0.0075,-0.00469c-0.00094,-0.00063 -0.00187,-0.00125 -0.00281,-0.00188c-0.00156,-0.00125 -0.00313,-0.00188 -0.00469,-0.00313c-0.00031,0 -0.00219,-0.00125 -0.00344,-0.00219c-0.00031,-0.00031 -0.00094,-0.00062 -0.00125,-0.00094c-0.01625,-0.01062 -0.03281,-0.02156 -0.04906,-0.03219c-0.91688,-0.59125 -1.84496,-0.89096 -2.75968,-0.89096c-1.52784,0 -2.54128,0.84784 -2.57064,0.8728c-0.00156,0.00125 -0.00312,0.00281 -0.005,0.00438c-0.00219,0.00187 -0.005,0.00438 -0.00813,0.00688c-0.15344,0.13031 -1.4284,1.16032 -3.35248,1.16032h-0.00031c-1.13504,0 -2.26752,-0.35469 -3.36816,-1.05472c-0.03406,-0.02156 -0.06844,-0.04406 -0.1025,-0.06625c-0.03812,-0.025 -0.07625,-0.04969 -0.11438,-0.07344c-1.09904,-0.69187 -2.21816,-0.96376 -3.30184,-0.80528c-0.00469,0.00062 -0.00969,0.00156 -0.01438,0.00219c-0.27782,0.04156 -0.55282,0.11187 -0.82032,0.20844c-0.06938,0.025 -0.13813,0.05219 -0.20656,0.08063l-0.00938,0.00406c-0.30656,0.13 -0.66062,-0.01344 -0.79031,-0.32031c-0.0325,-0.07688 -0.04781,-0.15625 -0.04781,-0.23469c0,-0.235 0.13813,-0.45844 0.36813,-0.55563l0.01094,-0.00469c0.00031,0 0.00063,-0.00031 0.00094,-0.00031c0.03969,-0.01656 0.07969,-0.03312 0.11969,-0.04875c0.38718,-0.1525 0.78875,-0.26031 1.1956,-0.32156c0.01719,-0.0025 0.03469,-0.00531 0.05219,-0.0075c0.2475,-0.03469 0.49938,-0.05219 0.74906,-0.05219c1.16032,0 2.31784,0.37062 3.4416,1.10184c0.02031,0.01156 0.03969,0.02438 0.05844,0.03813c0.92344,0.6 1.85872,0.90408 2.78032,0.90408c1.51376,-0.00031 2.5228,-0.83216 2.56968,-0.87184c0.00031,-0.00031 0.00063,-0.00063 0.00094,-0.00063c0.00187,-0.00156 0.00344,-0.00313 0.00531,-0.00438c0.00781,-0.00687 0.02219,-0.01875 0.04219,-0.035c0.2575,-0.20906 1.4972,-1.13184 3.31816,-1.13184h0.00063c1.17,0.00031 2.33784,0.3775 3.47,1.12096c0.00062,0.00063 0.00156,0.00094 0.00219,0.00156c0.00062,0.00031 0.00125,0.00094 0.00188,0.00125c0.00125,0.00062 0.00219,0.00156 0.00313,0.00219c0.93032,0.60938 1.87312,0.91816 2.80184,0.9184h0.00031c1.52752,-0.00031 2.54064,-0.8472 2.57064,-0.87248c0.00188,-0.00156 0.00344,-0.00281 0.005,-0.00438c0.03781,-0.0325 0.21344,-0.17969 0.5075,-0.35906c0.56406,-0.34438 1.56248,-0.80784 2.85248,-0.80784h0.00031h0.00031h0.00031c1.16496,0 2.32784,0.37406 3.45624,1.1116c0.00031,0.00031 0.00063,0.00031 0.00094,0.00063c0.00156,0.00094 0.00281,0.00188 0.00438,0.00281c0.00188,0.00125 0.00344,0.00219 0.00531,0.00344c0.00063,0.00063 0.00156,0.00094 0.00219,0.00156c0.00062,0.00031 0.00125,0.00063 0.00188,0.00125c0.045,0.02969 0.09,0.05844 0.13531,0.08594c0.39938,0.24562 0.80248,0.41937 1.20032,0.51781c0.00375,0.00094 0.0075,0.00188 0.01094,0.00281c0.96408,0.235 1.93312,0.03656 2.86096,-0.5775c0.27782,-0.18406 0.65187,-0.10782 0.8356,0.17c0.18375,0.27782 0.10782,0.65187 -0.17,0.8356c-0.00844,0.00563 -0.01656,0.01094 -0.025,0.01656c-0.86872,0.56906 -1.78128,0.85784 -2.7128,0.85784c-0.35,0 -0.70375,-0.04219 -1.05216,-0.12531c-0.0125,-0.00281 -0.02469,-0.00594 -0.03719,-0.00906c-0.57562,-0.14218 -1.15032,-0.40031 -1.70816,-0.76656c-0.00063,-0.00031 -0.00125,-0.00094 -0.00188,-0.00125c-0.00062,-0.00031 -0.00094,-0.00063 -0.00156,-0.00094c-0.04625,-0.03031 -0.0925,-0.06 -0.13875,-0.08875c-0.88656,-0.55218 -1.7828,-0.83216 -2.66656,-0.83216h-0.00031c-1.52656,0 -2.53968,0.84624 -2.57064,0.87248c-0.00188,0.00156 -0.00344,0.00281 -0.005,0.00438c-0.00625,0.00531 -0.01625,0.01375 -0.02969,0.025c0,0.00031 -0.00031,0.00031 -0.00031,0.00031c-0.00031,0 -0.00031,0.00031 -0.00063,0.00031c-0.0625,0.05156 -0.20063,0.15937 -0.40563,0.28906c-0.54875,0.3475 -1.57752,0.85216 -2.92376,0.85216l-0.00156,-0.00125h0.00031h-0.00031z" fill-rule="nonzero" fill="rgb(244, 242, 253)" fill-opacity="1" style="mix-blend-mode:NORMAL"></path></g></g></g></g><g transform="matrix(1,0,0,1,1.7236999999999991,13.464000000000002)"><g id="42457412" opacity="1" style="mix-blend-mode:normal"><g><g><path id="42457412_fill_path" d="M20.99219,3.25071h-0.00031h-0.00031c-1.16248,0 -2.3228,-0.37218 -3.44904,-1.10688c-0.00063,-0.00031 -0.00125,-0.00094 -0.00188,-0.00125c-0.0025,-0.00156 -0.005,-0.00313 -0.0075,-0.00469c-0.00094,-0.00063 -0.00187,-0.00125 -0.00281,-0.00188c-0.00156,-0.00125 -0.00313,-0.00188 -0.00469,-0.00313c-0.00031,0 -0.00219,-0.00125 -0.00344,-0.00219c-0.00031,-0.00031 -0.00094,-0.00062 -0.00125,-0.00094c-0.01625,-0.01062 -0.03281,-0.02156 -0.04906,-0.03219c-0.91688,-0.59125 -1.84496,-0.89096 -2.75968,-0.89096c-1.52784,0 -2.54128,0.84784 -2.57064,0.8728c-0.00156,0.00125 -0.00312,0.00281 -0.005,0.00438c-0.00219,0.00187 -0.005,0.00438 -0.00813,0.00688c-0.15344,0.13031 -1.4284,1.16032 -3.35248,1.16032h-0.00031c-1.13504,0 -2.26752,-0.35469 -3.36816,-1.05472c-0.03375,-0.02125 -0.0675,-0.04312 -0.10094,-0.06531c-0.00062,-0.00031 -0.00094,-0.00063 -0.00156,-0.00094l-0.01344,-0.00906c-0.92816,-0.60656 -1.86872,-0.91408 -2.79528,-0.9144h-0.00031c-0.5675,0 -1.12528,0.11438 -1.65784,0.33969c-0.30656,0.12969 -0.66062,-0.01344 -0.79031,-0.32031c-0.0325,-0.07656 -0.04781,-0.15625 -0.04781,-0.23469c0,-0.235 0.13813,-0.45844 0.36813,-0.55563c0.01188,-0.005 0.02375,-0.01 0.03563,-0.015c0.00031,-0.00031 0.00094,-0.00031 0.00125,-0.00063c0.00375,-0.00156 0.0075,-0.00313 0.01125,-0.00469c0.00375,-0.00156 0.00781,-0.00313 0.01156,-0.005h0.00031c0.00469,-0.00187 0.00906,-0.00375 0.01375,-0.00563c0.00188,-0.00062 0.00406,-0.00156 0.00594,-0.0025c0.65813,-0.26687 1.34656,-0.40219 2.04816,-0.40219h0.00031h0.00031h0.00031c1.15312,0 2.30376,0.36656 3.42096,1.08904c0.00188,0.00125 0.00406,0.0025 0.00594,0.00375c0.00125,0.00063 0.00219,0.00156 0.00344,0.00219c0.00062,0.00031 0.00125,0.00062 0.00188,0.00125c0.00125,0.00094 0.0025,0.00187 0.00375,0.0025c0.00188,0.00125 0.00375,0.0025 0.00563,0.00375c0.00187,0.00125 0.00312,0.00188 0.00469,0.00313c0.00281,0.00188 0.00531,0.00344 0.00813,0.00531c0.00031,0.00031 0.00062,0.00031 0.00094,0.00063l0.01469,0.00969c0.00031,0.00031 0.00094,0.00063 0.00125,0.00094c0.93216,0.61187 1.87688,0.92184 2.80752,0.92216c1.51376,-0.00031 2.5228,-0.83216 2.56968,-0.87184c0.00031,-0.00031 0.00063,-0.00063 0.00094,-0.00063c0.00188,-0.00156 0.00344,-0.00313 0.00531,-0.00438c0.00781,-0.00688 0.02219,-0.01875 0.04219,-0.035c0.2575,-0.20906 1.4972,-1.13184 3.31816,-1.13184h0.00063c1.17,0.00031 2.33784,0.37751 3.47,1.12096c0.00063,0.00062 0.00156,0.00094 0.00219,0.00156c0.00062,0.00031 0.00125,0.00094 0.00188,0.00125c0.00125,0.00063 0.00219,0.00156 0.00313,0.00219c0.93032,0.60938 1.87312,0.91816 2.80184,0.9184h0.00031c1.52752,-0.00031 2.54064,-0.8472 2.57064,-0.87248c0.00187,-0.00156 0.00344,-0.00281 0.005,-0.00438c0.03781,-0.0325 0.21344,-0.17969 0.5075,-0.35906c0.56406,-0.34438 1.56248,-0.80784 2.85248,-0.80784h0.00031h0.00031h0.00031c1.16,0 2.31752,0.37062 3.44096,1.1016c0.02,0.01156 0.03938,0.02406 0.05813,0.03781c0.70094,0.45406 1.40968,0.68407 2.10688,0.68407c0.69687,0 1.39128,-0.225 2.06408,-0.66844c0.00281,-0.00188 0.00531,-0.00344 0.00781,-0.00531c0.27782,-0.18406 0.65187,-0.10782 0.8356,0.17c0.18375,0.27782 0.10782,0.65187 -0.17,0.8356c-0.87624,0.58 -1.7972,0.87408 -2.73752,0.87408c-0.90032,0 -1.79592,-0.27438 -2.66496,-0.81592c-0.04438,-0.0275 -0.08844,-0.05594 -0.13282,-0.085c-0.00062,-0.00031 -0.00094,-0.00063 -0.00156,-0.00094c-0.00063,-0.00031 -0.00125,-0.00094 -0.00188,-0.00125c-0.04625,-0.03031 -0.0925,-0.06 -0.13875,-0.08875c-0.88656,-0.55218 -1.7828,-0.83216 -2.66656,-0.83216h-0.00031c-1.52656,0 -2.53968,0.84624 -2.57064,0.87248c-0.00187,0.00156 -0.00344,0.00281 -0.005,0.00438c-0.00625,0.00531 -0.01625,0.01375 -0.02969,0.025c0,0.00031 -0.00031,0.00031 -0.00031,0.00031c-0.00031,0 -0.00031,0.00031 -0.00063,0.00031c-0.0625,0.05156 -0.20063,0.15938 -0.40563,0.28906c-0.54875,0.3475 -1.57752,0.85216 -2.92376,0.85216l0.00031,0.00031h0.00031h-0.00031z" fill-rule="nonzero" fill="rgb(244, 242, 253)" fill-opacity="1" style="mix-blend-mode:NORMAL"></path></g></g></g></g><g transform="matrix(1,0,0,1,0,19.8158)"><g id="42457413" opacity="1" style="mix-blend-mode:normal"><g><g><path id="42457413_fill_path" d="M36.78784,4.65248h-34.4616c-1.2828,0 -2.32624,-1.04344 -2.32624,-2.32624c0,-1.2828 1.04344,-2.32624 2.32624,-2.32624h34.4616c1.2828,0 2.32624,1.04344 2.32624,2.32624c-0.00031,1.28248 -1.04376,2.32624 -2.32656,2.32624zM2.32624,1.20624c-0.6175,0 -1.12,0.5025 -1.12,1.12c0,0.6175 0.5025,1.12 1.12,1.12h34.4616c0.6175,0 1.12,-0.50249 1.12,-1.12c0,-0.6175 -0.5025,-1.12 -1.12,-1.12z" fill-rule="nonzero" fill="rgb(244, 242, 253)" fill-opacity="1" style="mix-blend-mode:NORMAL"></path></g></g></g></g></g></g></g></g><g transform="matrix(1,0,0,1,25.3758,0)"><g id="42457415" opacity="0" style="mix-blend-mode:normal"><g><g><path id="42457415_fill_path" d="M3.4616,6.37548h-2.1916c-0.19562,0 -0.37907,-0.095 -0.49219,-0.25469c-0.50875,-0.71844 -0.77781,-1.55184 -0.77781,-2.41032c0,-1.43592 0.76187,-2.78656 2.03784,-3.61344c0.19969,-0.12938 0.45625,-0.12938 0.65594,0c1.27592,0.82688 2.03784,2.17784 2.03784,3.61344c0,0.85752 -0.26875,1.69096 -0.7775,2.41c-0.11313,0.16 -0.29687,0.255 -0.4925,0.255zM1.59944,5.16924h1.53216c0.25844,-0.45125 0.39344,-0.95 0.39344,-1.45872c0,-0.8984 -0.42718,-1.75656 -1.15968,-2.36128c-0.7325,0.60469 -1.15968,1.46248 -1.15968,2.36128c0.00062,0.50938 0.13594,1.00816 0.39375,1.45872z" fill-rule="nonzero" fill="rgb(244, 242, 253)" fill-opacity="1" style="mix-blend-mode:NORMAL"></path></g></g></g></g><g transform="matrix(1,0,0,1,17.623,0.0003)"><g id="42457419" opacity="0" style="mix-blend-mode:normal"><g><g><path id="42457419_fill_path" d="M3.4616,6.37517h-2.1916c-0.19562,0 -0.37907,-0.095 -0.49219,-0.25438c-0.50906,-0.71844 -0.77781,-1.55184 -0.77781,-2.41032c0,-1.43592 0.76187,-2.78656 2.03784,-3.61344c0.19969,-0.12938 0.45625,-0.12938 0.65594,0c1.27592,0.82688 2.03784,2.17784 2.03784,3.61344c0,0.85752 -0.26875,1.69064 -0.7775,2.41c-0.11344,0.15969 -0.29687,0.25469 -0.4925,0.25469zM1.59912,5.16893h1.53248c0.25813,-0.45125 0.39344,-0.95 0.39344,-1.45872c0,-0.8984 -0.42718,-1.75656 -1.15968,-2.36128c-0.7325,0.60469 -1.15968,1.46248 -1.15968,2.36128c0.00031,0.50938 0.13531,1.00816 0.39344,1.45872z" fill-rule="nonzero" fill="rgb(244, 242, 253)" fill-opacity="1" style="mix-blend-mode:NORMAL"></path></g></g></g></g><g transform="matrix(1,0,0,1,9.8686,0.0003)"><g id="42457423" opacity="0" style="mix-blend-mode:normal"><g><g><path id="42457423_fill_path" d="M3.4616,6.37517h-2.1916c-0.19562,0 -0.37906,-0.095 -0.49218,-0.25438c-0.50906,-0.71844 -0.77782,-1.55184 -0.77782,-2.41032c0,-1.43592 0.76187,-2.78656 2.03784,-3.61344c0.19969,-0.12938 0.45656,-0.12938 0.65594,0c1.27592,0.82688 2.03784,2.17784 2.03784,3.61344c0,0.85752 -0.26875,1.69096 -0.7775,2.41c-0.11313,0.15969 -0.29687,0.25469 -0.4925,0.25469zM1.59944,5.16893h1.53248c0.25813,-0.45125 0.39344,-0.95 0.39344,-1.45872c0,-0.8984 -0.42718,-1.75656 -1.15968,-2.36128c-0.7325,0.60469 -1.15968,1.46248 -1.15968,2.36128c0,0.50938 0.13531,1.00816 0.39344,1.45872z" fill-rule="nonzero" fill="rgb(244, 242, 253)" fill-opacity="1" style="mix-blend-mode:NORMAL"></path></g></g></g></g><g transform="matrix(1,0,0,1,9.48,16.71)"><g id="42517995" opacity="0" style="mix-blend-mode:normal"><g><g><g transform="matrix(1,0,0,1,15.507999999999996,0)"><g id="42457414" opacity="1" style="mix-blend-mode:normal"><g><g><path id="42457414_fill_path" d="M4.91097,8.96002h-4.30784c-0.33313,0 -0.60313,-0.27 -0.60313,-0.60313v-7.75376c0,-0.33313 0.27,-0.60313 0.60313,-0.60313h4.30784c0.33313,0 0.60313,0.27 0.60313,0.60313v7.75376c0,0.33313 -0.27,0.60313 -0.60313,0.60313zM1.20625,7.75378h3.1016v-6.54784h-3.1016z" fill-rule="nonzero" fill="rgb(244, 242, 253)" fill-opacity="1" style="mix-blend-mode:NORMAL"></path></g></g></g></g><g transform="matrix(1,0,0,1,15.508400000000002,1.7220999999999975)"><g id="42457416" opacity="1" style="mix-blend-mode:normal"><g><g><path id="42457416_fill_path" d="M0.60334,2.9299c-0.23938,0 -0.46562,-0.14344 -0.56,-0.37938c-0.12375,-0.30906 0.02656,-0.66031 0.33594,-0.78406l4.30784,-1.72312c0.30938,-0.12375 0.66031,0.02656 0.78406,0.33594c0.12375,0.30906 -0.02656,0.66031 -0.33594,0.78406l-4.30784,1.72312c-0.07375,0.02938 -0.14969,0.04344 -0.22406,0.04344z" fill-rule="nonzero" fill="rgb(244, 242, 253)" fill-opacity="1" style="mix-blend-mode:NORMAL"></path></g></g></g></g><g transform="matrix(1,0,0,1,15.508400000000002,4.306899999999999)"><g id="42457417" opacity="1" style="mix-blend-mode:normal"><g><g><path id="42457417_fill_path" d="M0.60334,2.9299c-0.23938,0 -0.46562,-0.14344 -0.56,-0.37938c-0.12375,-0.30906 0.02656,-0.66031 0.33594,-0.78407l4.30784,-1.72312c0.30938,-0.12375 0.66031,0.02656 0.78406,0.33594c0.12375,0.30906 -0.02656,0.66031 -0.33594,0.78406l-4.30784,1.72312c-0.07375,0.02969 -0.14969,0.04344 -0.22406,0.04344z" fill-rule="nonzero" fill="rgb(244, 242, 253)" fill-opacity="1" style="mix-blend-mode:NORMAL"></path></g></g></g></g><g transform="matrix(1,0,0,1,7.754399999999997,0)"><g id="42457418" opacity="1" style="mix-blend-mode:normal"><g><g><path id="42457418_fill_path" d="M4.91097,8.96002h-4.30784c-0.33313,0 -0.60313,-0.27 -0.60313,-0.60313v-7.75376c0,-0.33313 0.27,-0.60313 0.60313,-0.60313h4.30784c0.33313,0 0.60313,0.27 0.60313,0.60313v7.75376c0,0.33313 -0.27,0.60313 -0.60313,0.60313zM1.20625,7.75378h3.1016v-6.54784h-3.1016z" fill-rule="nonzero" fill="rgb(244, 242, 253)" fill-opacity="1" style="mix-blend-mode:NORMAL"></path></g></g></g></g><g transform="matrix(1,0,0,1,7.753999999999998,1.7220999999999975)"><g id="42457420" opacity="1" style="mix-blend-mode:normal"><g><g><path id="42457420_fill_path" d="M0.60334,2.9299c-0.23938,0 -0.46562,-0.14344 -0.56,-0.37938c-0.12375,-0.30906 0.02656,-0.66031 0.33594,-0.78406l4.30784,-1.72312c0.30938,-0.12375 0.66031,0.02656 0.78407,0.33594c0.12375,0.30906 -0.02656,0.66031 -0.33594,0.78406l-4.30784,1.72312c-0.07375,0.02938 -0.14969,0.04344 -0.22406,0.04344z" fill-rule="nonzero" fill="rgb(244, 242, 253)" fill-opacity="1" style="mix-blend-mode:NORMAL"></path></g></g></g></g><g transform="matrix(1,0,0,1,7.753999999999998,4.306899999999999)"><g id="42457421" opacity="1" style="mix-blend-mode:normal"><g><g><path id="42457421_fill_path" d="M0.60334,2.9299c-0.23938,0 -0.46562,-0.14344 -0.56,-0.37938c-0.12375,-0.30906 0.02656,-0.66031 0.33594,-0.78407l4.30784,-1.72312c0.30938,-0.12375 0.66031,0.02656 0.78407,0.33594c0.12375,0.30906 -0.02656,0.66031 -0.33594,0.78406l-4.30784,1.72312c-0.07375,0.02969 -0.14969,0.04344 -0.22406,0.04344z" fill-rule="nonzero" fill="rgb(244, 242, 253)" fill-opacity="1" style="mix-blend-mode:NORMAL"></path></g></g></g></g><g transform="matrix(1,0,0,1,0,0)"><g id="42457422" opacity="1" style="mix-blend-mode:normal"><g><g><path id="42457422_fill_path" d="M4.91097,8.96002h-4.30784c-0.33313,0 -0.60313,-0.27 -0.60313,-0.60313v-7.75376c0,-0.33313 0.27,-0.60313 0.60313,-0.60313h4.30784c0.33313,0 0.60313,0.27 0.60313,0.60313v7.75376c0,0.33313 -0.27,0.60313 -0.60313,0.60313zM1.20657,7.75378h3.1016v-6.54784h-3.1016z" fill-rule="nonzero" fill="rgb(244, 242, 253)" fill-opacity="1" style="mix-blend-mode:NORMAL"></path></g></g></g></g><g transform="matrix(1,0,0,1,0.00039999999999906777,1.7220999999999975)"><g id="42457424" opacity="1" style="mix-blend-mode:normal"><g><g><path id="42457424_fill_path" d="M0.60334,2.9299c-0.23938,0 -0.46562,-0.14344 -0.56,-0.37938c-0.12375,-0.30906 0.02656,-0.66031 0.33594,-0.78406l4.30784,-1.72312c0.30906,-0.12375 0.66031,0.02656 0.78406,0.33594c0.12375,0.30906 -0.02656,0.66031 -0.33594,0.78406l-4.30784,1.72312c-0.07375,0.02938 -0.14938,0.04344 -0.22406,0.04344z" fill-rule="nonzero" fill="rgb(244, 242, 253)" fill-opacity="1" style="mix-blend-mode:NORMAL"></path></g></g></g></g><g transform="matrix(1,0,0,1,0.00039999999999906777,4.306899999999999)"><g id="42457425" opacity="1" style="mix-blend-mode:normal"><g><g><path id="42457425_fill_path" d="M0.60334,2.9299c-0.23938,0 -0.46562,-0.14344 -0.56,-0.37938c-0.12375,-0.30906 0.02656,-0.66031 0.33594,-0.78407l4.30784,-1.72312c0.30906,-0.12375 0.66031,0.02656 0.78406,0.33594c0.12375,0.30906 -0.02656,0.66031 -0.33594,0.78406l-4.30784,1.72312c-0.07375,0.02969 -0.14938,0.04344 -0.22406,0.04344z" fill-rule="nonzero" fill="rgb(244, 242, 253)" fill-opacity="1" style="mix-blend-mode:NORMAL"></path></g></g></g></g></g></g></g></g></g></g></g></g></g></g></g></g><animateTransform href="#42457402" attributeName="transform" type="translate" values="0 0;0 0;1.7230999999999987 0;1.7230999999999987 0" dur="5s" repeatCount="indefinite" calcMode="spline" keyTimes="0;0.43;0.59;1" keySplines="0.5 0.35 0.15 1;0.5 0.35 0.15 1;0.5 0.35 0.15 1" additive="sum"></animateTransform><animate href="#42457402" attributeName="opacity" values="0;0;1;1" dur="5s" repeatCount="indefinite" calcMode="spline" keyTimes="0;0.43;0.59;1" keySplines="0.5 0.35 0.15 1;0.5 0.35 0.15 1;0.5 0.35 0.15 1"></animate><animateTransform href="#42457403" attributeName="transform" type="translate" values="0 0;0 0;-1.723 0;-1.723 0" dur="5s" repeatCount="indefinite" calcMode="spline" keyTimes="0;0.43;0.59;1" keySplines="0.5 0.35 0.15 1;0.5 0.35 0.15 1;0.5 0.35 0.15 1" additive="sum"></animateTransform><animate href="#42457403" attributeName="opacity" values="0;0;1;1" dur="5s" repeatCount="indefinite" calcMode="spline" keyTimes="0;0.43;0.59;1" keySplines="0.5 0.35 0.15 1;0.5 0.35 0.15 1;0.5 0.35 0.15 1"></animate><animateTransform href="#42457404" attributeName="transform" type="translate" values="0 0;0 0;-1.7229999999999999 0;-1.7229999999999999 0" dur="5s" repeatCount="indefinite" calcMode="spline" keyTimes="0;0.43;0.59;1" keySplines="0.5 0.35 0.15 1;0.5 0.35 0.15 1;0.5 0.35 0.15 1" additive="sum"></animateTransform><animate href="#42457404" attributeName="opacity" values="0;0;1;1" dur="5s" repeatCount="indefinite" calcMode="spline" keyTimes="0;0.43;0.59;1" keySplines="0.5 0.35 0.15 1;0.5 0.35 0.15 1;0.5 0.35 0.15 1"></animate><animateTransform href="#42457405" attributeName="transform" type="translate" values="0 0;0 0;-1.8859999999999992 0;-1.8859999999999992 0" dur="5s" repeatCount="indefinite" calcMode="spline" keyTimes="0;0.43;0.59;1" keySplines="0.5 0.35 0.15 1;0.5 0.35 0.15 1;0.5 0.35 0.15 1" additive="sum"></animateTransform><animate href="#42457405" attributeName="opacity" values="0;0;1;1" dur="5s" repeatCount="indefinite" calcMode="spline" keyTimes="0;0.43;0.59;1" keySplines="0.5 0.35 0.15 1;0.5 0.35 0.15 1;0.5 0.35 0.15 1"></animate><animateTransform href="#42457406" attributeName="transform" type="translate" values="0 0;0 0;1.8862999999999985 0;1.8862999999999985 0" dur="5s" repeatCount="indefinite" calcMode="spline" keyTimes="0;0.43;0.59;1" keySplines="0.5 0.35 0.15 1;0.5 0.35 0.15 1;0.5 0.35 0.15 1" additive="sum"></animateTransform><animate href="#42457406" attributeName="opacity" values="0;0;1;1" dur="5s" repeatCount="indefinite" calcMode="spline" keyTimes="0;0.43;0.59;1" keySplines="0.5 0.35 0.15 1;0.5 0.35 0.15 1;0.5 0.35 0.15 1"></animate><animateTransform href="#42457407" attributeName="transform" type="translate" values="0 0;0 0;1.8859999999999992 0;1.8859999999999992 0" dur="5s" repeatCount="indefinite" calcMode="spline" keyTimes="0;0.43;0.59;1" keySplines="0.5 0.35 0.15 1;0.5 0.35 0.15 1;0.5 0.35 0.15 1" additive="sum"></animateTransform><animate href="#42457407" attributeName="opacity" values="0;0;1;1" dur="5s" repeatCount="indefinite" calcMode="spline" keyTimes="0;0.43;0.59;1" keySplines="0.5 0.35 0.15 1;0.5 0.35 0.15 1;0.5 0.35 0.15 1"></animate><animateTransform href="#42517994" attributeName="transform" type="translate" values="0 0;0 -24.4683;0 -24.4683" dur="5s" repeatCount="indefinite" calcMode="spline" keyTimes="0;0.16;1" keySplines="0.5 0.35 0.15 1;0.5 0.35 0.15 1" additive="sum"></animateTransform><animate href="#42517994" attributeName="opacity" values="0;1;1" dur="5s" repeatCount="indefinite" calcMode="spline" keyTimes="0;0.16;1" keySplines="0.5 0.35 0.15 1;0.5 0.35 0.15 1"></animate><animate href="#42457415" attributeName="opacity" values="0;0;1;1" dur="5s" repeatCount="indefinite" calcMode="spline" keyTimes="0;0.27;0.43;1" keySplines="0.5 0.35 0.15 1;0.5 0.35 0.15 1;0.5 0.35 0.15 1"></animate><animate href="#42457419" attributeName="opacity" values="0;0;1;1" dur="5s" repeatCount="indefinite" calcMode="spline" keyTimes="0;0.26;0.42;1" keySplines="0.5 0.35 0.15 1;0.5 0.35 0.15 1;0.5 0.35 0.15 1"></animate><animate href="#42457423" attributeName="opacity" values="0;0;1;1" dur="5s" repeatCount="indefinite" calcMode="spline" keyTimes="0;0.24;0.4;1" keySplines="0.5 0.35 0.15 1;0.5 0.35 0.15 1;0.5 0.35 0.15 1"></animate><animateTransform href="#42517995" attributeName="transform" type="translate" values="0 0;0 0;0 -8.959999999999999;0 -8.959999999999999" dur="5s" repeatCount="indefinite" calcMode="spline" keyTimes="0;0.16;0.32;1" keySplines="0.5 0.35 0.15 1;0.5 0.35 0.15 1;0.5 0.35 0.15 1" additive="sum"></animateTransform><animate href="#42517995" attributeName="opacity" values="0;0;1;1" dur="5s" repeatCount="indefinite" calcMode="spline" keyTimes="0;0.16;0.32;1" keySplines="0.5 0.35 0.15 1;0.5 0.35 0.15 1;0.5 0.35 0.15 1"></animate></svg>