<svg id="44658584" viewBox="0 0 56 56" xmlns="http://www.w3.org/2000/svg" xmlns:xlink="http://www.w3.org/1999/xlink"><g transform="matrix(1,0,0,1,0,0)"><g id="44658584" opacity="1" style="mix-blend-mode:normal"><g><g><g transform="matrix(1,0,0,1,0,0)"><g id="44658568" opacity="1" style="mix-blend-mode:normal"><g><g><g transform="matrix(1,0,0,1,0,0)"><g id="44658570" opacity="1" style="mix-blend-mode:normal"><g><g><g transform="matrix(1,0,0,1,0,0)"><g id="44658571" opacity="1" style="mix-blend-mode:normal"><g><g></g></g></g></g><g transform="matrix(1,0,0,1,4,5)"><g id="44658572" opacity="1" style="mix-blend-mode:normal"><g><g><g transform="matrix(1,0,0,1,0,39)"><g id="44658573" opacity="0" style="mix-blend-mode:normal"><g><g><defs><clipPath id="lbd3x8tmzec03nnifv" clipPathUnits="userSpaceOnUse"><path d="M39,19.5c0,2.0456 -0.3217,4.0794 -0.9535,6.0255c-0.6318,1.9461 -1.5678,3.7811 -2.771,5.4366c-1.2031,1.6556 -2.6578,3.1103 -4.3134,4.3134c-1.6555,1.2032 -3.4905,2.1392 -5.4366,2.771c-1.9461,0.6318 -3.9799,0.9535 -6.0255,0.9535c-2.0455,0 -4.0794,-0.3217 -6.0255,-0.9535c-1.9461,-0.6318 -3.781,-1.5678 -5.4366,-2.771c-1.6555,-1.2031 -3.1102,-2.6578 -4.3134,-4.3134c-1.2031,-1.6555 -2.1391,-3.4905 -2.7709,-5.4366c-0.6318,-1.9461 -0.9536,-3.9799 -0.9536,-6.0255c0,-2.0455 0.3218,-4.0794 0.9536,-6.0255c0.6318,-1.9461 1.5678,-3.781 2.7709,-5.4366c1.2032,-1.6555 2.6579,-3.1102 4.3134,-4.3134c1.6556,-1.2031 3.4905,-2.1391 5.4366,-2.7709c1.9461,-0.6318 3.98,-0.9536 6.0255,-0.9536c2.0456,0 4.0794,0.3218 6.0255,0.9536c1.9461,0.6318 3.7811,1.5678 5.4366,2.7709c1.6556,1.2032 3.1103,2.6579 4.3134,4.3134c1.2032,1.6556 2.1392,3.4905 2.771,5.4366c0.6318,1.9461 0.9535,3.98 0.9535,6.0255z"></path></clipPath></defs><path id="44658573_stroke_path" d="M39,19.5c0,2.0456 -0.3217,4.0794 -0.9535,6.0255c-0.6318,1.9461 -1.5678,3.7811 -2.771,5.4366c-1.2031,1.6556 -2.6578,3.1103 -4.3134,4.3134c-1.6555,1.2032 -3.4905,2.1392 -5.4366,2.771c-1.9461,0.6318 -3.9799,0.9535 -6.0255,0.9535c-2.0455,0 -4.0794,-0.3217 -6.0255,-0.9535c-1.9461,-0.6318 -3.781,-1.5678 -5.4366,-2.771c-1.6555,-1.2031 -3.1102,-2.6578 -4.3134,-4.3134c-1.2031,-1.6555 -2.1391,-3.4905 -2.7709,-5.4366c-0.6318,-1.9461 -0.9536,-3.9799 -0.9536,-6.0255c0,-2.0455 0.3218,-4.0794 0.9536,-6.0255c0.6318,-1.9461 1.5678,-3.781 2.7709,-5.4366c1.2032,-1.6555 2.6579,-3.1102 4.3134,-4.3134c1.6556,-1.2031 3.4905,-2.1391 5.4366,-2.7709c1.9461,-0.6318 3.98,-0.9536 6.0255,-0.9536c2.0456,0 4.0794,0.3218 6.0255,0.9536c1.9461,0.6318 3.7811,1.5678 5.4366,2.7709c1.6556,1.2032 3.1103,2.6579 4.3134,4.3134c1.2032,1.6556 2.1392,3.4905 2.771,5.4366c0.6318,1.9461 0.9535,3.98 0.9535,6.0255z" fill="none" stroke="rgb(244, 242, 253)" stroke-width="3" stroke-linecap="butt" stroke-linejoin="butt" stroke-dasharray="0 0" stroke-opacity="1" clip-path="url(#lbd3x8tmzec03nnifv)"></path></g></g></g></g><g transform="matrix(1,0,0,1,24,47)"><g id="44658574" opacity="0" style="mix-blend-mode:normal"><g><g><path id="44658574_fill_path" d="M25,12.5c0,1.3112 -0.2062,2.615 -0.6112,3.8625c-0.405,1.2475 -1.005,2.4238 -1.7763,3.485c-0.7712,1.0613 -1.7037,1.9938 -2.765,2.765c-1.0612,0.7713 -2.2375,1.3713 -3.485,1.7763c-1.2475,0.405 -2.5513,0.6112 -3.8625,0.6112c-1.3112,0 -2.615,-0.2062 -3.8625,-0.6112c-1.2475,-0.405 -2.4237,-1.005 -3.485,-1.7763c-1.0612,-0.7712 -1.9937,-1.7037 -2.765,-2.765c-0.7712,-1.0612 -1.3712,-2.2375 -1.7762,-3.485c-0.405,-1.2475 -0.6113,-2.5513 -0.6113,-3.8625c0,-1.3112 0.2063,-2.615 0.6113,-3.8625c0.405,-1.2475 1.005,-2.4237 1.7762,-3.485c0.7713,-1.0612 1.7038,-1.9937 2.765,-2.765c1.0613,-0.7712 2.2375,-1.3712 3.485,-1.7762c1.2475,-0.405 2.5513,-0.6113 3.8625,-0.6113c1.3112,0 2.615,0.2063 3.8625,0.6113c1.2475,0.405 2.4238,1.005 3.485,1.7762c1.0613,0.7713 1.9938,1.7038 2.765,2.765c0.7713,1.0613 1.3713,2.2375 1.7763,3.485c0.405,1.2475 0.6112,2.5513 0.6112,3.8625z" fill-rule="nonzero" fill="rgb(220, 120, 152)" fill-opacity="1" style="mix-blend-mode:NORMAL"></path><defs><clipPath id="lbd3x8tmism13d0dv" clipPathUnits="userSpaceOnUse"><path d="M25,12.5c0,1.3112 -0.2062,2.615 -0.6112,3.8625c-0.405,1.2475 -1.005,2.4238 -1.7763,3.485c-0.7712,1.0613 -1.7037,1.9938 -2.765,2.765c-1.0612,0.7713 -2.2375,1.3713 -3.485,1.7763c-1.2475,0.405 -2.5513,0.6112 -3.8625,0.6112c-1.3112,0 -2.615,-0.2062 -3.8625,-0.6112c-1.2475,-0.405 -2.4237,-1.005 -3.485,-1.7763c-1.0612,-0.7712 -1.9937,-1.7037 -2.765,-2.765c-0.7712,-1.0612 -1.3712,-2.2375 -1.7762,-3.485c-0.405,-1.2475 -0.6113,-2.5513 -0.6113,-3.8625c0,-1.3112 0.2063,-2.615 0.6113,-3.8625c0.405,-1.2475 1.005,-2.4237 1.7762,-3.485c0.7713,-1.0612 1.7038,-1.9937 2.765,-2.765c1.0613,-0.7712 2.2375,-1.3712 3.485,-1.7762c1.2475,-0.405 2.5513,-0.6113 3.8625,-0.6113c1.3112,0 2.615,0.2063 3.8625,0.6113c1.2475,0.405 2.4238,1.005 3.485,1.7762c1.0613,0.7713 1.9938,1.7038 2.765,2.765c0.7713,1.0613 1.3713,2.2375 1.7763,3.485c0.405,1.2475 0.6112,2.5513 0.6112,3.8625z"></path></clipPath></defs><path id="44658574_stroke_path" d="M25,12.5c0,1.3112 -0.2062,2.615 -0.6112,3.8625c-0.405,1.2475 -1.005,2.4238 -1.7763,3.485c-0.7712,1.0613 -1.7037,1.9938 -2.765,2.765c-1.0612,0.7713 -2.2375,1.3713 -3.485,1.7763c-1.2475,0.405 -2.5513,0.6112 -3.8625,0.6112c-1.3112,0 -2.615,-0.2062 -3.8625,-0.6112c-1.2475,-0.405 -2.4237,-1.005 -3.485,-1.7763c-1.0612,-0.7712 -1.9937,-1.7037 -2.765,-2.765c-0.7712,-1.0612 -1.3712,-2.2375 -1.7762,-3.485c-0.405,-1.2475 -0.6113,-2.5513 -0.6113,-3.8625c0,-1.3112 0.2063,-2.615 0.6113,-3.8625c0.405,-1.2475 1.005,-2.4237 1.7762,-3.485c0.7713,-1.0612 1.7038,-1.9937 2.765,-2.765c1.0613,-0.7712 2.2375,-1.3712 3.485,-1.7762c1.2475,-0.405 2.5513,-0.6113 3.8625,-0.6113c1.3112,0 2.615,0.2063 3.8625,0.6113c1.2475,0.405 2.4238,1.005 3.485,1.7762c1.0613,0.7713 1.9938,1.7038 2.765,2.765c0.7713,1.0613 1.3713,2.2375 1.7763,3.485c0.405,1.2475 0.6112,2.5513 0.6112,3.8625z" fill="none" stroke="rgb(244, 242, 253)" stroke-width="3" stroke-linecap="butt" stroke-linejoin="butt" stroke-dasharray="0 0" stroke-opacity="1" clip-path="url(#lbd3x8tmism13d0dv)"></path></g></g></g></g><g transform="matrix(1,0,0,1,25,31)"><g id="44658575" opacity="0" style="mix-blend-mode:normal"><g><g><path id="44658575_fill_path" d="M2.80518,4.434c1.05,0 1.656,-0.462 1.656,-1.362c0,-0.828 -0.546,-1.296 -1.662,-1.296c-0.222,0 -0.42,0.006 -0.618,0.012c-0.192,0.006 -0.378,0.012 -0.57,0.012h-0.228v0.048c0.336,0 0.432,0.108 0.432,0.468v3.198c0,0.348 -0.102,0.438 -0.42,0.438v0.048h1.524v-0.048c-0.414,0 -0.54,-0.108 -0.54,-0.468v-1.056c0.12,0.006 0.264,0.006 0.426,0.006zM3.87318,3.126c0,0.882 -0.36,1.248 -1.02,1.248c-0.156,0 -0.324,-0.042 -0.474,-0.15v-2.34c0.12,-0.03 0.24,-0.048 0.348,-0.048c0.792,0 1.146,0.402 1.146,1.29zM7.08379,6.078c1.272,0 2.094,-0.822 2.094,-2.196c0,-1.278 -0.786,-2.13 -2.058,-2.13c-1.272,0 -2.136,0.858 -2.136,2.148c0,1.344 0.828,2.178 2.1,2.178zM7.16779,5.988c-0.906,0 -1.548,-0.798 -1.548,-2.202c0,-1.206 0.48,-1.95 1.374,-1.95c0.9,0 1.548,0.828 1.548,2.226c0,1.212 -0.456,1.926 -1.374,1.926zM9.66501,6h1.42199v-0.048c-0.336,0 -0.438,-0.108 -0.438,-0.468v-3.198c0,-0.348 0.102,-0.438 0.42,-0.438v-0.048h-1.41599v0.048c0.336,0 0.43199,0.108 0.43199,0.468v3.198c0,0.348 -0.10199,0.438 -0.41999,0.438zM14.073,1.794v0.048c0.372,0 0.498,0.216 0.498,0.81v2.508l-2.28,-3.36h-0.84v0.048c0.336,0 0.438,0.108 0.438,0.468v2.85c0,0.54 -0.114,0.786 -0.432,0.786v0.048h1.02v-0.048c-0.39,0 -0.528,-0.27 -0.528,-0.816v-2.784l2.496,3.648h0.186v-3.378c0,-0.576 0.108,-0.78 0.42,-0.78v-0.048zM18.5336,1.8h-3.168l-0.03,1.086h0.048c0.228,-0.816 0.366,-1.032 0.792,-1.032h0.498v3.66c0,0.348 -0.102,0.438 -0.42,0.438v0.048h1.416v-0.048c-0.336,0 -0.438,-0.108 -0.438,-0.468v-3.63h0.486c0.438,0 0.576,0.216 0.798,1.032h0.048zM19.5781,2.514c0,-0.396 0.21,-0.684 0.702,-0.684c0.402,0 0.534,0.204 0.534,0.402c0,0.114 -0.048,0.234 -0.114,0.306c0.048,0.108 0.168,0.174 0.312,0.174c0.186,0 0.306,-0.114 0.306,-0.318c0,-0.348 -0.348,-0.636 -0.924,-0.636c-0.696,0 -1.23,0.414 -1.23,1.074c0,0.66 0.504,0.966 0.996,1.266c0.462,0.276 0.918,0.552 0.918,1.116c0,0.51 -0.366,0.75 -0.858,0.75c-0.54,0 -0.726,-0.306 -0.726,-0.576c0,-0.144 0.054,-0.276 0.138,-0.342c-0.066,-0.114 -0.162,-0.18 -0.312,-0.18c-0.198,0 -0.33,0.138 -0.33,0.366c0,0.336 0.342,0.81 1.152,0.81c0.78,0 1.338,-0.444 1.338,-1.14c0,-0.708 -0.51,-1.008 -1.002,-1.296c-0.462,-0.27 -0.9,-0.528 -0.9,-1.092z" fill-rule="nonzero" fill="rgb(244, 242, 253)" fill-opacity="1" style="mix-blend-mode:NORMAL"></path></g></g></g></g><g transform="matrix(1,0,0,1,8,9)"><g id="44658576" opacity="0" style="mix-blend-mode:normal"><g><g><path id="44658576_fill_path" d="M8.31266,12.912h-0.09c-0.108,0.378 -0.414,0.576 -1.008,0.576c-0.72,0 -1.35,-0.198 -1.998,-0.396c-0.63,-0.198 -1.26,-0.396 -1.944,-0.396c-0.81,0 -1.35,0.36 -1.692,0.702c0.558,-1.71 1.998,-2.592 3.384,-3.474c1.674,-1.044 3.312,-2.07 3.312,-4.446c0,-1.854 -1.35,-3.186 -3.672,-3.186c-1.926,0 -3.294,1.242 -3.294,2.718c0,0.594 0.396,0.936 0.936,0.936c0.468,0 0.774,-0.234 0.918,-0.54c-0.216,-0.378 -0.342,-0.828 -0.342,-1.26c0,-0.846 0.468,-1.62 1.584,-1.62c1.404,0 2.142,1.296 2.142,2.808c0,2.34 -1.296,3.474 -2.628,4.626c-1.386,1.188 -2.79,2.412 -2.772,5.058h0.18c0,-0.45 0.054,-0.864 0.144,-1.242c0.252,-0.162 0.594,-0.252 0.972,-0.252c0.792,0 1.494,0.36 2.196,0.756c0.774,0.396 1.566,0.828 2.574,0.828c0.846,0 1.422,-0.558 1.422,-1.26c0,-0.306 -0.09,-0.63 -0.324,-0.936zM19.9068,13.632l-3.744,-5.508l2.574,-3.672c1.08,-1.566 1.548,-1.908 2.214,-1.908v-0.144h-3.168v0.144c0.828,0 1.278,0.162 1.278,0.612c0,0.288 -0.18,0.684 -0.558,1.242l-2.466,3.546l-2.898,-4.284c-0.162,-0.234 -0.234,-0.432 -0.234,-0.576c0,-0.378 0.432,-0.54 1.224,-0.54v-0.144h-4.51803v0.144c0.73803,0 1.00803,0.216 1.69203,1.224l3.42,5.058l-2.988,4.032c-1.152,1.584 -1.62,1.998 -2.30403,1.998v0.144h3.16803v-0.144c-0.81,0 -1.242,-0.18 -1.242,-0.612c0,-0.306 0.216,-0.72 0.63,-1.296l2.862,-3.924l3.186,4.716c0.144,0.216 0.216,0.414 0.216,0.558c0,0.378 -0.432,0.558 -1.206,0.558v0.144h4.554v-0.144c-0.72,0 -1.008,-0.216 -1.692,-1.224z" fill-rule="nonzero" fill="rgb(244, 242, 253)" fill-opacity="1" style="mix-blend-mode:NORMAL"></path></g></g></g></g><g transform="matrix(1,0,0,1,38.77,16)"><g id="44658577" opacity="0" style="mix-blend-mode:normal"><g><g><g transform="matrix(1,0,0,1,2.3896000000000015,0)"><g id="44658578" opacity="1" style="mix-blend-mode:normal"><g><g><path id="44658578_fill_path" d="M0.82476,0.1732l-0.65156,0.65156c-0.23094,0.23094 -0.23094,0.61094 0,0.8416c0.11531,0.11531 0.27156,0.17656 0.42094,0.17656c0.14938,0 0.30531,-0.05438 0.42094,-0.17656l0.65156,-0.65156c0.23094,-0.23094 0.23094,-0.61094 0,-0.8416c-0.23782,-0.23094 -0.61094,-0.23094 -0.84184,0z" fill-rule="nonzero" fill="rgb(244, 242, 253)" fill-opacity="1" style="mix-blend-mode:NORMAL"></path></g></g></g></g><g transform="matrix(1,0,0,1,0,2.3902)"><g id="44658579" opacity="1" style="mix-blend-mode:normal"><g><g><path id="44658579_fill_path" d="M0.82476,0.17895l-0.65156,0.645c-0.23094,0.23094 -0.23094,0.61094 0,0.8416c0.11531,0.11531 0.27156,0.17656 0.42094,0.17656c0.14938,0 0.30531,-0.05438 0.42094,-0.17656l0.65156,-0.65156c0.23094,-0.23094 0.23094,-0.61094 0,-0.8416c-0.2375,-0.23094 -0.61093,-0.23094 -0.84184,0.00656z" fill-rule="nonzero" fill="rgb(244, 242, 253)" fill-opacity="1" style="mix-blend-mode:NORMAL"></path></g></g></g></g><g transform="matrix(1,0,0,1,2.3892000000000024,2.396000000000001)"><g id="44658580" opacity="1" style="mix-blend-mode:normal"><g><g><path id="44658580_fill_path" d="M1.0148,0.1732c-0.23094,-0.23094 -0.61094,-0.23094 -0.8416,0c-0.23094,0.23094 -0.23094,0.61094 0,0.8416l0.65156,0.65156c0.11531,0.11531 0.27156,0.17656 0.42094,0.17656c0.14938,0 0.30531,-0.05438 0.42093,-0.17656c0.23094,-0.23094 0.23094,-0.61094 0,-0.8416z" fill-rule="nonzero" fill="rgb(244, 242, 253)" fill-opacity="1" style="mix-blend-mode:NORMAL"></path></g></g></g></g><g transform="matrix(1,0,0,1,0.00039999999999906777,0)"><g id="44658581" opacity="1" style="mix-blend-mode:normal"><g><g><path id="44658581_fill_path" d="M1.0148,0.1732c-0.23094,-0.23094 -0.61094,-0.23094 -0.8416,0c-0.23094,0.23094 -0.23094,0.61094 0,0.8416l0.65156,0.65156c0.11531,0.11531 0.27156,0.17656 0.42094,0.17656c0.14938,0 0.30531,-0.05438 0.42094,-0.17656c0.23094,-0.23094 0.23094,-0.61094 0,-0.8416z" fill-rule="nonzero" fill="rgb(244, 242, 253)" fill-opacity="1" style="mix-blend-mode:NORMAL"></path></g></g></g></g></g></g></g></g><g transform="matrix(1,0,0,1,21,44)"><g id="44658582" opacity="1" style="mix-blend-mode:normal"><g><g><path id="44658582_fill_path" d="M0,0.18193l1.8181,-0.18193l0.1819,1.81807l-1.81809,0.18193z" fill-rule="nonzero" fill="rgb(244, 242, 253)" fill-opacity="1" style="mix-blend-mode:NORMAL"></path></g></g></g></g><g transform="matrix(1,0,0,1,17,41)"><g id="44658583" opacity="1" style="mix-blend-mode:normal"><g><g><path id="44658583_fill_path" d="M0,0.17156l1.7144,-0.17156l0.17156,1.7144l-1.7144,0.17156z" fill-rule="nonzero" fill="rgb(244, 242, 253)" fill-opacity="1" style="mix-blend-mode:NORMAL"></path></g></g></g></g></g></g></g></g></g></g></g></g></g></g></g></g></g></g></g></g><animateTransform href="#44658573" attributeName="transform" type="translate" values="0 0;0 -39;0 -39" dur="5s" repeatCount="indefinite" calcMode="spline" keyTimes="0;0.16;1" keySplines="0.5 0.35 0.15 1;0.5 0.35 0.15 1" additive="sum" fill="freeze"></animateTransform><animate href="#44658573" attributeName="opacity" values="0;1;1" dur="5s" repeatCount="indefinite" calcMode="spline" keyTimes="0;0.16;1" keySplines="0.5 0.35 0.15 1;0.5 0.35 0.15 1" additive="sum" fill="freeze"></animate><animateTransform href="#44658574" attributeName="transform" type="translate" values="0 0;0 0;0 -25;0 -25" dur="5s" repeatCount="indefinite" calcMode="spline" keyTimes="0;0.02;0.18;1" keySplines="0.5 0.35 0.15 1;0.5 0.35 0.15 1;0.5 0.35 0.15 1" additive="sum" fill="freeze"></animateTransform><animate href="#44658574" attributeName="opacity" values="0;0;1;1" dur="5s" repeatCount="indefinite" calcMode="spline" keyTimes="0;0.02;0.18;1" keySplines="0.5 0.35 0.15 1;0.5 0.35 0.15 1;0.5 0.35 0.15 1" additive="sum" fill="freeze"></animate><animate href="#44658575" attributeName="opacity" values="0;0;1;1" dur="5s" repeatCount="indefinite" calcMode="spline" keyTimes="0;0.2;0.36;1" keySplines="0.5 0.35 0.15 1;0.5 0.35 0.15 1;0.5 0.35 0.15 1" additive="sum" fill="freeze"></animate><animate href="#44658576" attributeName="opacity" values="0;0;1;1" dur="5s" repeatCount="indefinite" calcMode="spline" keyTimes="0;0.18;0.34;1" keySplines="0.5 0.35 0.15 1;0.5 0.35 0.15 1;0.5 0.35 0.15 1" additive="sum" fill="freeze"></animate><animateTransform href="#44658577" attributeName="transform" type="translate" values="0 0;0 0;4.229399999999998 0;4.229399999999998 0" dur="5s" repeatCount="indefinite" calcMode="spline" keyTimes="0;0.35;0.51;1" keySplines="0.5 0.35 0.15 1;0.5 0.35 0.15 1;0.5 0.35 0.15 1" additive="sum" fill="freeze"></animateTransform><animate href="#44658577" attributeName="opacity" values="0;0;1;1" dur="5s" repeatCount="indefinite" calcMode="spline" keyTimes="0;0.35;0.51;1" keySplines="0.5 0.35 0.15 1;0.5 0.35 0.15 1;0.5 0.35 0.15 1" additive="sum" fill="freeze"></animate><animateTransform href="#44658582" attributeName="transform" type="translate" values="1 1;1 1;1 1;1 1" dur="5s" repeatCount="indefinite" calcMode="spline" keyTimes="0;0.43;0.59;1" keySplines="0.5 0.35 0.15 1;0.5 0.35 0.15 1;0.5 0.35 0.15 1" additive="sum" fill="freeze"></animateTransform><animateTransform href="#44658582" attributeName="transform" type="scale" values="0 0;0 0;1 1;1 1" dur="5s" repeatCount="indefinite" calcMode="spline" keyTimes="0;0.43;0.59;1" keySplines="0.5 0.35 0.15 1;0.5 0.35 0.15 1;0.5 0.35 0.15 1" additive="sum" fill="freeze"></animateTransform><animateTransform href="#44658582" attributeName="transform" type="translate" values="-1 -1;-1 -1;-1 -1;-1 -1" dur="5s" repeatCount="indefinite" calcMode="spline" keyTimes="0;0.43;0.59;1" keySplines="0.5 0.35 0.15 1;0.5 0.35 0.15 1;0.5 0.35 0.15 1" additive="sum" fill="freeze"></animateTransform><animateTransform href="#44658583" attributeName="transform" type="translate" values="0.943 0.943;0.943 0.943;0.943 0.943;0.943 0.943" dur="5s" repeatCount="indefinite" calcMode="spline" keyTimes="0;0.43;0.59;1" keySplines="0.5 0.35 0.15 1;0.5 0.35 0.15 1;0.5 0.35 0.15 1" additive="sum" fill="freeze"></animateTransform><animateTransform href="#44658583" attributeName="transform" type="scale" values="0 0;0 0;1 1;1 1" dur="5s" repeatCount="indefinite" calcMode="spline" keyTimes="0;0.43;0.59;1" keySplines="0.5 0.35 0.15 1;0.5 0.35 0.15 1;0.5 0.35 0.15 1" additive="sum" fill="freeze"></animateTransform><animateTransform href="#44658583" attributeName="transform" type="translate" values="-0.943 -0.943;-0.943 -0.943;-0.943 -0.943;-0.943 -0.943" dur="5s" repeatCount="indefinite" calcMode="spline" keyTimes="0;0.43;0.59;1" keySplines="0.5 0.35 0.15 1;0.5 0.35 0.15 1;0.5 0.35 0.15 1" additive="sum" fill="freeze"></animateTransform></svg>