<svg id="425810676" viewBox="0 0 56 56" xmlns="http://www.w3.org/2000/svg" xmlns:xlink="http://www.w3.org/1999/xlink"><g transform="matrix(1,0,0,1,0,0)"><g id="425810676" opacity="1" style="mix-blend-mode:normal"><g><g><g transform="matrix(1,0,0,1,0,0)"><g id="425810087" opacity="1" style="mix-blend-mode:normal"><g><g><g transform="matrix(1,0,0,1,0,0)"><g id="425810088" opacity="1" style="mix-blend-mode:normal"><g><g></g></g></g></g><g transform="matrix(1,0,0,1,7,7)"><g id="425810089" opacity="1" style="mix-blend-mode:normal"><g><g><g transform="matrix(1,0,0,1,15.1479,13.999300000000002)"><g id="425810090" opacity="0" style="mix-blend-mode:normal"><g><g><path id="425810090_fill_path" d="M2.52409,7.19907l-0.54594,3.1828c-0.04531,0.26282 0.06281,0.52813 0.27844,0.68469c0.21562,0.15656 0.50125,0.1775 0.73718,0.05344l2.8584,-1.5028l2.8584,1.5028c0.23594,0.12406 0.52156,0.10313 0.73718,-0.05344c0.21562,-0.15656 0.32375,-0.42187 0.27844,-0.68469l-0.54594,-3.1828l2.31248,-2.25408c0.19094,-0.18625 0.25969,-0.46438 0.17718,-0.71782c-0.08218,-0.25344 -0.30125,-0.43813 -0.565,-0.47625l-3.19592,-0.46438l-1.42936,-2.89624h0.00031c-0.11813,-0.23906 -0.36125,-0.39031 -0.62782,-0.39031c-0.26657,0 -0.50969,0.15125 -0.62781,0.39031l-1.42936,2.89624l-3.19592,0.46438h0.00031c-0.26375,0.03812 -0.48282,0.22282 -0.565,0.47625c-0.0825,0.25344 -0.01375,0.53156 0.17719,0.71782zM4.36097,4.61907h-0.00031c0.22813,-0.03312 0.42531,-0.17625 0.52719,-0.38282l0.9644,-1.95408l0.9644,1.95408c0.10187,0.20656 0.29907,0.34969 0.52719,0.38282l2.15656,0.31344l-1.56064,1.52096c-0.165,0.16094 -0.24031,0.3925 -0.20125,0.61969l0.36844,2.14784l-1.92872,-1.01408v-0.00031c-0.20406,-0.10718 -0.44782,-0.10718 -0.65156,0l-1.92872,1.01408l0.36844,-2.14784v0.00031c0.03875,-0.22718 -0.03656,-0.45875 -0.20125,-0.61969l-1.56064,-1.52128z" fill-rule="nonzero" fill="rgb(244, 242, 253)" fill-opacity="1" style="mix-blend-mode:NORMAL"></path></g></g></g></g><g transform="matrix(1,0,0,1,4.1921,20.082)"><g id="425810091" opacity="0" style="mix-blend-mode:normal"><g><g><path id="425810091_fill_path" d="M0.52712,6.22679l2.54904,0.64813l0.91096,2.46752c0.0925,0.25 0.31875,0.42594 0.58375,0.45375c0.02438,0.0025 0.04875,0.00375 0.07312,0.00375c0.24031,0 0.46375,-0.12313 0.59187,-0.32625l1.4044,-2.22408l2.62816,-0.10406c0.26625,-0.01062 0.50344,-0.17125 0.61187,-0.41469c0.10813,-0.24344 0.06906,-0.52718 -0.10125,-0.73218l-1.68128,-2.0228l0.71313,-2.5316c0.07219,-0.25625 -0.0075,-0.53156 -0.20531,-0.70969c-0.19813,-0.17844 -0.48,-0.22875 -0.7275,-0.13031l-2.44312,0.97376l-2.18752,-1.46064c-0.22156,-0.14782 -0.50813,-0.15687 -0.73875,-0.02344c-0.23062,0.13313 -0.36562,0.38562 -0.34844,0.65125l0.17125,2.62496l-2.06496,1.62872c-0.20938,0.165 -0.30656,0.43469 -0.25125,0.69531c0.05531,0.26062 0.25371,0.46696 0.51183,0.53259zM3.48712,4.24119c0.18094,-0.1425 0.28,-0.365 0.265,-0.595l-0.10282,-1.57656l1.31376,0.87752c0.19156,0.12782 0.43406,0.15344 0.64813,0.06813l1.46752,-0.585l-0.42875,1.52064c-0.0625,0.22156 -0.01187,0.46 0.13531,0.63719l1.01,1.21472l-1.5784,0.0625c-0.23031,0.00906 -0.44125,0.13093 -0.56437,0.32593l-0.84344,1.3356l-0.54718,-1.48184c-0.07969,-0.21625 -0.26094,-0.37938 -0.48406,-0.43594l-1.53128,-0.38938z" fill-rule="nonzero" fill="rgb(244, 242, 253)" fill-opacity="1" style="mix-blend-mode:NORMAL"></path></g></g></g></g><g transform="matrix(1,0,0,1,20.3,25.200000000000003)"><g id="425810092" opacity="0" style="mix-blend-mode:normal"><g><g><path id="425810092_fill_path" d="M0,0h1.4v12.6h-1.4z" fill-rule="nonzero" fill="rgb(244, 242, 253)" fill-opacity="1" style="mix-blend-mode:NORMAL"></path></g></g></g></g><g transform="matrix(1,0,0,1,11.5366,28.099800000000002)"><g id="425810093" opacity="0" style="mix-blend-mode:normal"><g><g><path id="425810093_fill_path" d="M0.72344,0.00018l-0.72344,1.19872c0.00812,0.005 0.83216,0.51906 1.89,1.83872c0.98,1.22312 2.36592,3.40656 3.40312,6.86408l1.34096,-0.4025c-2.15344,-7.17688 -5.75816,-9.4072 -5.91064,-9.4992z" fill-rule="nonzero" fill="rgb(244, 242, 253)" fill-opacity="1" style="mix-blend-mode:NORMAL"></path></g></g></g></g><g transform="matrix(1,0,0,1,13,35)"><g id="425810094" opacity="0" style="mix-blend-mode:normal"><g><g><path id="425810094_fill_path" d="M0.90067,0.00501c0.54956,-0.05477 1.03959,0.34606 1.09438,0.89561c0.05514,0.54956 -0.34606,1.03959 -0.89561,1.09438c-0.54956,0.05477 -1.03959,-0.34606 -1.09438,-0.89561c-0.05514,-0.54919 0.34606,-1.03922 0.89561,-1.09438z" fill-rule="nonzero" fill="rgb(244, 242, 253)" fill-opacity="1" style="mix-blend-mode:NORMAL"></path></g></g></g></g><g transform="matrix(1,0,0,1,27.859,20.081)"><g id="425810095" opacity="0" style="mix-blend-mode:normal"><g><g><path id="425810095_fill_path" d="M0.67222,7.14613l2.62816,0.10406l1.40408,2.22408h0.00031c0.12813,0.20282 0.35125,0.32625 0.59156,0.32625c0.02438,0 0.04906,-0.00125 0.07344,-0.00375c0.265,-0.02812 0.49125,-0.20375 0.58344,-0.45375l0.91096,-2.46752l2.54904,-0.64813v-0.00031c0.25813,-0.06562 0.45687,-0.27219 0.51218,-0.53282c0.05531,-0.26062 -0.04188,-0.53 -0.25125,-0.695l-2.06496,-1.62872l0.17125,-2.62496c0.0175,-0.26594 -0.11782,-0.51875 -0.34844,-0.65187c-0.23062,-0.13313 -0.51718,-0.12375 -0.73875,0.02406l-2.18752,1.46064l-2.44312,-0.97376c-0.2475,-0.09875 -0.52938,-0.04844 -0.7275,0.13c-0.19813,0.17813 -0.27781,0.45344 -0.20531,0.71l0.71313,2.5316l-1.68128,2.0228v-0.00031c-0.17031,0.205 -0.20938,0.48875 -0.10125,0.73218c0.10844,0.24344 0.34562,0.40438 0.61187,0.41469zM3.29062,3.9511l-0.42875,-1.52064l1.46752,0.585c0.21375,0.08531 0.45593,0.05969 0.6475,-0.06781l1.31376,-0.87752l-0.10282,1.57656c-0.015,0.22969 0.08406,0.45218 0.265,0.595l1.24032,0.97816l-1.53128,0.38938c-0.22344,0.05688 -0.40437,0.21969 -0.48406,0.43594l-0.54719,1.48184l-0.84248,-1.33528c-0.12313,-0.195 -0.33406,-0.31687 -0.56406,-0.32594l-1.5784,-0.0625l1.00968,-1.21504c0.14718,-0.17718 0.19782,-0.41531 0.13531,-0.63719z" fill-rule="nonzero" fill="rgb(244, 242, 253)" fill-opacity="1" style="mix-blend-mode:NORMAL"></path></g></g></g></g><g transform="matrix(1,0,0,1,23.8217,28.0997)"><g id="425810096" opacity="0" style="mix-blend-mode:normal"><g><g><path id="425810096_fill_path" d="M6.27032,0.60031l-0.36,-0.60031c-0.1525,0.09156 -3.7572,2.32184 -5.91032,9.4992l1.34096,0.4025c1.9816,-6.6056 5.26,-8.6824 5.2928,-8.7032z" fill-rule="nonzero" fill="rgb(244, 242, 253)" fill-opacity="1" style="mix-blend-mode:NORMAL"></path></g></g></g></g><g transform="matrix(1,0,0,1,11.2,13.3)"><g id="425810097" opacity="0" style="mix-blend-mode:normal"><g><g><path id="425810097_fill_path" d="M0,0h1.4v1.4h-1.4z" fill-rule="nonzero" fill="rgb(244, 242, 253)" fill-opacity="1" style="mix-blend-mode:NORMAL"></path></g></g></g></g><g transform="matrix(1,0,0,1,28.7,35)"><g id="425810098" opacity="0" style="mix-blend-mode:normal"><g><g><path id="425810098_fill_path" d="M0,0h1.4v1.4h-1.4z" fill-rule="nonzero" fill="rgb(244, 242, 253)" fill-opacity="1" style="mix-blend-mode:NORMAL"></path></g></g></g></g><g transform="matrix(1,0,0,1,33.28,31)"><g id="425810099" opacity="0" style="mix-blend-mode:normal"><g><g><path id="425810099_fill_path" d="M0.77592,0.00431c0.47344,-0.04719 0.8956,0.29813 0.9428,0.77156c0.0475,0.47344 -0.29813,0.8956 -0.77156,0.9428c-0.47344,0.04719 -0.8956,-0.29813 -0.9428,-0.77156c-0.0475,-0.47313 0.29813,-0.89528 0.77156,-0.9428z" fill-rule="nonzero" fill="rgb(244, 242, 253)" fill-opacity="1" style="mix-blend-mode:NORMAL"></path></g></g></g></g><g transform="matrix(1,0,0,1,6.3,31.5)"><g id="425810100" opacity="0" style="mix-blend-mode:normal"><g><g><path id="425810100_fill_path" d="M0,0h1.4v1.4h-1.4z" fill-rule="nonzero" fill="rgb(244, 242, 253)" fill-opacity="1" style="mix-blend-mode:NORMAL"></path></g></g></g></g><g transform="matrix(1,0,0,1,6.3,16.1)"><g id="425810101" opacity="0" style="mix-blend-mode:normal"><g><g><path id="425810101_fill_path" d="M0,0h1.4v1.4h-1.4z" fill-rule="nonzero" fill="rgb(244, 242, 253)" fill-opacity="1" style="mix-blend-mode:NORMAL"></path></g></g></g></g><g transform="matrix(1,0,0,1,0,42)"><g id="425810102" opacity="0" style="mix-blend-mode:normal"><g><g><path id="425810102_fill_path" d="M39.90002,2.79997h-2.1v-0.7c0,-0.75031 -0.40031,-1.44344 -1.05,-1.81872c-0.64969,-0.375 -1.45032,-0.375 -2.1,0c-0.64969,0.37531 -1.05,1.0684 -1.05,1.81872v0.7h-5.6v-0.7c0,-0.75031 -0.40031,-1.44344 -1.05,-1.81872c-0.64969,-0.375 -1.45032,-0.375 -2.1,0c-0.64969,0.37531 -1.05,1.0684 -1.05,1.81872v0.7h-5.6v-0.7c0,-0.75031 -0.40031,-1.44344 -1.05,-1.81872c-0.64969,-0.375 -1.45032,-0.375 -2.1,0c-0.64969,0.37531 -1.05,1.0684 -1.05,1.81872v0.7h-5.6v-0.7c0,-0.75031 -0.40031,-1.44344 -1.05,-1.81872c-0.64969,-0.375 -1.45032,-0.375 -2.1,0c-0.64969,0.37531 -1.05,1.0684 -1.05,1.81872v0.7h-2.1c-0.55687,0.00062 -1.09064,0.22218 -1.48408,0.61594c-0.39375,0.39344 -0.61531,0.9272 -0.61594,1.48408v35c0.00062,0.55687 0.22218,1.09064 0.61594,1.48408c0.39344,0.39375 0.9272,0.61531 1.48408,0.61594h37.8c0.55687,-0.00062 1.09064,-0.22218 1.48408,-0.61594c0.39375,-0.39344 0.61531,-0.9272 0.61593,-1.48408v-35c-0.00062,-0.55687 -0.22218,-1.09064 -0.61593,-1.48408c-0.39344,-0.39375 -0.9272,-0.61531 -1.48408,-0.61594zM35.00002,2.09997c0,-0.38656 0.31344,-0.7 0.7,-0.7c0.38656,0 0.7,0.31344 0.7,0.7v2.8c0,0.38656 -0.31344,0.7 -0.7,0.7c-0.38656,0 -0.7,-0.31344 -0.7,-0.7zM25.20002,2.09997c0,-0.38656 0.31344,-0.7 0.7,-0.7c0.38656,0 0.7,0.31344 0.7,0.7v2.8c0,0.38656 -0.31344,0.7 -0.7,0.7c-0.38656,0 -0.7,-0.31344 -0.7,-0.7zM15.40002,2.09997c0,-0.38656 0.31344,-0.7 0.7,-0.7c0.38656,0 0.7,0.31344 0.7,0.7v2.8c0,0.38656 -0.31344,0.7 -0.7,0.7c-0.38656,0 -0.7,-0.31344 -0.7,-0.7zM5.60002,2.09997c0,-0.38656 0.31344,-0.7 0.7,-0.7c0.38656,0 0.7,0.31344 0.7,0.7v2.8c0,0.38656 -0.31344,0.7 -0.7,0.7c-0.38656,0 -0.7,-0.31344 -0.7,-0.7zM40.60002,39.89997c-0.00031,0.38656 -0.31344,0.69968 -0.7,0.7h-37.8c-0.38656,-0.00031 -0.69969,-0.31344 -0.7,-0.7v-28.7h39.2zM40.60002,9.79997h-39.2v-4.9c0.00031,-0.38656 0.31344,-0.69969 0.7,-0.7h2.1v0.7c0,0.75031 0.40031,1.44344 1.05,1.81872c0.64969,0.375 1.45032,0.375 2.1,0c0.64969,-0.37531 1.05,-1.0684 1.05,-1.81872v-0.7h5.6v0.7c0,0.75031 0.40031,1.44344 1.05,1.81872c0.64969,0.375 1.45032,0.375 2.1,0c0.64969,-0.37531 1.05,-1.0684 1.05,-1.81872v-0.7h5.6v0.7c0,0.75031 0.40031,1.44344 1.05,1.81872c0.64969,0.375 1.45032,0.375 2.1,0c0.64969,-0.37531 1.05,-1.0684 1.05,-1.81872v-0.7h5.6v0.7c0,0.75031 0.40031,1.44344 1.05,1.81872c0.64969,0.375 1.45032,0.375 2.1,0c0.64969,-0.37531 1.05,-1.0684 1.05,-1.81872v-0.7h2.1c0.38656,0.00031 0.69969,0.31344 0.7,0.7z" fill-rule="nonzero" fill="rgb(244, 242, 253)" fill-opacity="1" style="mix-blend-mode:NORMAL"></path></g></g></g></g><g transform="matrix(1,0,0,1,30,14)"><g id="425810103" opacity="1" style="mix-blend-mode:normal"><g><g><g transform="matrix(1,0,0,1,2.3888999999999996,0)"><g id="425810104" opacity="1" style="mix-blend-mode:normal"><g><g><path id="425810104_fill_path" d="M0.59387,1.84292c0.14938,0 0.30531,-0.06094 0.42094,-0.17656l0.65156,-0.65156c0.23094,-0.23094 0.23094,-0.61094 0,-0.8416c-0.23094,-0.23094 -0.61094,-0.23094 -0.8416,0l-0.65156,0.65156c-0.23094,0.23094 -0.23094,0.61094 0,0.8416c0.11531,0.11531 0.26469,0.17656 0.42062,0.17656z" fill-rule="nonzero" fill="rgb(244, 242, 253)" fill-opacity="1" style="mix-blend-mode:NORMAL"></path></g></g></g></g><g transform="matrix(1,0,0,1,0,2.389199999999999)"><g id="425810105" opacity="1" style="mix-blend-mode:normal"><g><g><path id="425810105_fill_path" d="M1.0148,1.66636l0.65156,-0.65156c0.23094,-0.23094 0.23094,-0.61094 0,-0.8416c-0.23094,-0.23094 -0.61094,-0.23094 -0.8416,0l-0.65156,0.65156c-0.23094,0.23094 -0.23094,0.61094 0,0.8416c0.11531,0.11531 0.27156,0.17656 0.42094,0.17656c0.14906,0 0.29844,-0.06125 0.42062,-0.17656z" fill-rule="nonzero" fill="rgb(244, 242, 253)" fill-opacity="1" style="mix-blend-mode:NORMAL"></path></g></g></g></g><g transform="matrix(1,0,0,1,2.3823000000000008,2.389199999999999)"><g id="425810106" opacity="1" style="mix-blend-mode:normal"><g><g><path id="425810106_fill_path" d="M0.82449,1.66636c0.11531,0.11531 0.27156,0.17656 0.42094,0.17656c0.14938,0 0.30531,-0.05438 0.42094,-0.17656c0.23094,-0.23094 0.23094,-0.61094 0,-0.8416l-0.65156,-0.65156c-0.23094,-0.23094 -0.61094,-0.23094 -0.8416,0c-0.23094,0.23094 -0.23094,0.61094 0,0.8416z" fill-rule="nonzero" fill="rgb(244, 242, 253)" fill-opacity="1" style="mix-blend-mode:NORMAL"></path></g></g></g></g><g transform="matrix(1,0,0,1,0,0.0069000000000016826)"><g id="425810107" opacity="1" style="mix-blend-mode:normal"><g><g><path id="425810107_fill_path" d="M0.1732,1.0148l0.65156,0.65156c0.11531,0.11531 0.27156,0.17656 0.42094,0.17656c0.14938,0 0.30531,-0.05438 0.42094,-0.17656c0.23094,-0.23094 0.23094,-0.61094 0,-0.8416l-0.65156,-0.65156c-0.23094,-0.23094 -0.61094,-0.23094 -0.8416,0c-0.23125,0.23062 -0.23125,0.60375 -0.00031,0.8416z" fill-rule="nonzero" fill="rgb(244, 242, 253)" fill-opacity="1" style="mix-blend-mode:NORMAL"></path></g></g></g></g></g></g></g></g></g></g></g></g></g></g></g></g></g></g></g></g><animate href="#425810090" attributeName="opacity" values="0;0;1;1" dur="5s" repeatCount="indefinite" calcMode="spline" keyTimes="0;0.2;0.5;1" keySplines="0.5 0.35 0.15 1;0.5 0.35 0.15 1;0.5 0.35 0.15 1"></animate><animate href="#425810091" attributeName="opacity" values="0;0;1;1" dur="5s" repeatCount="indefinite" calcMode="spline" keyTimes="0;0.19;0.49;1" keySplines="0.5 0.35 0.15 1;0.5 0.35 0.15 1;0.5 0.35 0.15 1"></animate><animate href="#425810092" attributeName="opacity" values="0;0;1;1" dur="5s" repeatCount="indefinite" calcMode="spline" keyTimes="0;0.1;0.4;1" keySplines="0.5 0.35 0.15 1;0.5 0.35 0.15 1;0.5 0.35 0.15 1"></animate><animate href="#425810093" attributeName="opacity" values="0;0;1;1" dur="5s" repeatCount="indefinite" calcMode="spline" keyTimes="0;0.1;0.4;1" keySplines="0.5 0.35 0.15 1;0.5 0.35 0.15 1;0.5 0.35 0.15 1"></animate><animateTransform href="#425810094" attributeName="transform" type="translate" values="0 0;0 0;-2.0000999999999998 0;-2.0000999999999998 0" dur="5s" repeatCount="indefinite" calcMode="spline" keyTimes="0;0.43;0.59;1" keySplines="0.5 0.35 0.15 1;0.5 0.35 0.15 1;0.5 0.35 0.15 1" additive="sum"></animateTransform><animate href="#425810094" attributeName="opacity" values="0;0;1;1" dur="5s" repeatCount="indefinite" calcMode="spline" keyTimes="0;0.43;0.59;1" keySplines="0.5 0.35 0.15 1;0.5 0.35 0.15 1;0.5 0.35 0.15 1"></animate><animate href="#425810095" attributeName="opacity" values="0;0;1;1" dur="5s" repeatCount="indefinite" calcMode="spline" keyTimes="0;0.2;0.5;1" keySplines="0.5 0.35 0.15 1;0.5 0.35 0.15 1;0.5 0.35 0.15 1"></animate><animate href="#425810096" attributeName="opacity" values="0;0;1;1" dur="5s" repeatCount="indefinite" calcMode="spline" keyTimes="0;0.11;0.41;1" keySplines="0.5 0.35 0.15 1;0.5 0.35 0.15 1;0.5 0.35 0.15 1"></animate><animateTransform href="#425810097" attributeName="transform" type="translate" values="0 0;0 0;-1.3999999999999986 0;-1.3999999999999986 0" dur="5s" repeatCount="indefinite" calcMode="spline" keyTimes="0;0.43;0.59;1" keySplines="0.5 0.35 0.15 1;0.5 0.35 0.15 1;0.5 0.35 0.15 1" additive="sum"></animateTransform><animate href="#425810097" attributeName="opacity" values="0;0;1;1" dur="5s" repeatCount="indefinite" calcMode="spline" keyTimes="0;0.43;0.59;1" keySplines="0.5 0.35 0.15 1;0.5 0.35 0.15 1;0.5 0.35 0.15 1"></animate><animateTransform href="#425810098" attributeName="transform" type="translate" values="0 0;0 0;1.4000000000000021 0;1.4000000000000021 0" dur="5s" repeatCount="indefinite" calcMode="spline" keyTimes="0;0.43;0.59;1" keySplines="0.5 0.35 0.15 1;0.5 0.35 0.15 1;0.5 0.35 0.15 1" additive="sum"></animateTransform><animate href="#425810098" attributeName="opacity" values="0;0;1;1" dur="5s" repeatCount="indefinite" calcMode="spline" keyTimes="0;0.43;0.59;1" keySplines="0.5 0.35 0.15 1;0.5 0.35 0.15 1;0.5 0.35 0.15 1"></animate><animateTransform href="#425810099" attributeName="transform" type="translate" values="0 0;0 0;1.7231000000000023 0;1.7231000000000023 0" dur="5s" repeatCount="indefinite" calcMode="spline" keyTimes="0;0.44;0.6;1" keySplines="0.5 0.35 0.15 1;0.5 0.35 0.15 1;0.5 0.35 0.15 1" additive="sum"></animateTransform><animate href="#425810099" attributeName="opacity" values="0;0;1;1" dur="5s" repeatCount="indefinite" calcMode="spline" keyTimes="0;0.44;0.6;1" keySplines="0.5 0.35 0.15 1;0.5 0.35 0.15 1;0.5 0.35 0.15 1"></animate><animateTransform href="#425810100" attributeName="transform" type="translate" values="0 0;0 0;-1.3999999999999995 0;-1.3999999999999995 0" dur="5s" repeatCount="indefinite" calcMode="spline" keyTimes="0;0.44;0.6;1" keySplines="0.5 0.35 0.15 1;0.5 0.35 0.15 1;0.5 0.35 0.15 1" additive="sum"></animateTransform><animate href="#425810100" attributeName="opacity" values="0;0;1;1" dur="5s" repeatCount="indefinite" calcMode="spline" keyTimes="0;0.44;0.6;1" keySplines="0.5 0.35 0.15 1;0.5 0.35 0.15 1;0.5 0.35 0.15 1"></animate><animateTransform href="#425810101" attributeName="transform" type="translate" values="0 0;0 0;-1.3999999999999995 0;-1.3999999999999995 0" dur="5s" repeatCount="indefinite" calcMode="spline" keyTimes="0;0.44;0.6;1" keySplines="0.5 0.35 0.15 1;0.5 0.35 0.15 1;0.5 0.35 0.15 1" additive="sum"></animateTransform><animate href="#425810101" attributeName="opacity" values="0;0;1;1" dur="5s" repeatCount="indefinite" calcMode="spline" keyTimes="0;0.44;0.6;1" keySplines="0.5 0.35 0.15 1;0.5 0.35 0.15 1;0.5 0.35 0.15 1"></animate><animateTransform href="#425810102" attributeName="transform" type="translate" values="0 0;0 -42;0 -42" dur="5s" repeatCount="indefinite" calcMode="spline" keyTimes="0;0.16;1" keySplines="0.5 0.35 0.15 1;0.5 0.35 0.15 1" additive="sum"></animateTransform><animate href="#425810102" attributeName="opacity" values="0;1;1" dur="5s" repeatCount="indefinite" calcMode="spline" keyTimes="0;0.16;1" keySplines="0.5 0.35 0.15 1;0.5 0.35 0.15 1"></animate><animateTransform href="#425810103" attributeName="transform" type="translate" values="2.1143 2.1161;2.1143 2.1161;2.1143 2.1161;2.1143 2.1161" dur="5s" repeatCount="indefinite" calcMode="spline" keyTimes="0;0.4;0.56;1" keySplines="0.5 0.35 0.15 1;0.5 0.35 0.15 1;0.5 0.35 0.15 1" additive="sum"></animateTransform><animateTransform href="#425810103" attributeName="transform" type="scale" values="1 0;1 0;1 1;1 1" dur="5s" repeatCount="indefinite" calcMode="spline" keyTimes="0;0.4;0.56;1" keySplines="0.5 0.35 0.15 1;0.5 0.35 0.15 1;0.5 0.35 0.15 1" additive="sum"></animateTransform><animateTransform href="#425810103" attributeName="transform" type="translate" values="-2.1143 -2.1161;-2.1143 -2.1161;-2.1143 -2.1161;-2.1143 -2.1161" dur="5s" repeatCount="indefinite" calcMode="spline" keyTimes="0;0.4;0.56;1" keySplines="0.5 0.35 0.15 1;0.5 0.35 0.15 1;0.5 0.35 0.15 1" additive="sum"></animateTransform></svg>