<svg id="44658567" viewBox="0 0 56 56" xmlns="http://www.w3.org/2000/svg" xmlns:xlink="http://www.w3.org/1999/xlink"><g transform="matrix(1,0,0,1,0,0)"><g id="44658567" opacity="1" style="mix-blend-mode:normal"><g><g><g transform="matrix(1,0,0,1,0,0)"><g id="44657986" opacity="1" style="mix-blend-mode:normal"><g><g><g transform="matrix(1,0,0,1,0,0)"><g id="44657987" opacity="1" style="mix-blend-mode:normal"><g><g></g></g></g></g><g transform="matrix(1,0,0,1,0,0)"><g id="44657988" opacity="1" style="mix-blend-mode:normal"><g><g><g transform="matrix(1,0,0,1,0,0)"><g id="44657989" opacity="1" style="mix-blend-mode:normal"><g><defs><clipPath id="44657989_clipPath" x="-50%" y="-50%" width="200%" height="200%"><path d="M0,56v-56h56v56z" fill="white" clip-rule="nonzero"></path></clipPath></defs><g clip-path="url(#44657989_clipPath)"><g transform="matrix(1,0,0,1,11.3889,9)"><g id="44657990" opacity="0" style="mix-blend-mode:normal"><g><g><path id="44657990_fill_path" d="M0.59387,1.84292c0.14938,0 0.30531,-0.06094 0.42094,-0.17656l0.65156,-0.65156c0.23094,-0.23094 0.23094,-0.61094 0,-0.8416c-0.23094,-0.23094 -0.61094,-0.23094 -0.8416,0l-0.65156,0.65156c-0.23094,0.23094 -0.23094,0.61094 0,0.8416c0.11531,0.11531 0.26469,0.17656 0.42062,0.17656z" fill-rule="nonzero" fill="rgb(244, 242, 253)" fill-opacity="1" style="mix-blend-mode:NORMAL"></path></g></g></g></g><g transform="matrix(1,0,0,1,9,11.3893)"><g id="44657991" opacity="0" style="mix-blend-mode:normal"><g><g><path id="44657991_fill_path" d="M1.0148,1.66636l0.65156,-0.65156c0.23094,-0.23094 0.23094,-0.61094 0,-0.8416c-0.23094,-0.23094 -0.61094,-0.23094 -0.8416,0l-0.65156,0.65156c-0.23094,0.23094 -0.23094,0.61094 0,0.8416c0.11531,0.11531 0.27156,0.17656 0.42094,0.17656c0.14906,0 0.29844,-0.06125 0.42062,-0.17656z" fill-rule="nonzero" fill="rgb(244, 242, 253)" fill-opacity="1" style="mix-blend-mode:NORMAL"></path></g></g></g></g><g transform="matrix(1,0,0,1,11.3823,11.3893)"><g id="44657992" opacity="0" style="mix-blend-mode:normal"><g><g><path id="44657992_fill_path" d="M0.82449,1.66636c0.11531,0.11531 0.27156,0.17656 0.42094,0.17656c0.14938,0 0.30531,-0.05438 0.42094,-0.17656c0.23094,-0.23094 0.23094,-0.61094 0,-0.8416l-0.65156,-0.65156c-0.23094,-0.23094 -0.61094,-0.23094 -0.8416,0c-0.23094,0.23094 -0.23094,0.61094 0,0.8416z" fill-rule="nonzero" fill="rgb(244, 242, 253)" fill-opacity="1" style="mix-blend-mode:NORMAL"></path></g></g></g></g><g transform="matrix(1,0,0,1,9,9.007)"><g id="44657993" opacity="0" style="mix-blend-mode:normal"><g><g><path id="44657993_fill_path" d="M0.1732,1.0148l0.65156,0.65156c0.11531,0.11531 0.27156,0.17656 0.42094,0.17656c0.14938,0 0.30531,-0.05438 0.42094,-0.17656c0.23094,-0.23094 0.23094,-0.61094 0,-0.8416l-0.65156,-0.65156c-0.23094,-0.23094 -0.61094,-0.23094 -0.8416,0c-0.23125,0.23062 -0.23125,0.60375 -0.00031,0.8416z" fill-rule="nonzero" fill="rgb(244, 242, 253)" fill-opacity="1" style="mix-blend-mode:NORMAL"></path></g></g></g></g><g transform="matrix(1,0,0,1,31,41)"><g id="44657994" opacity="0" style="mix-blend-mode:normal"><g><g><path id="44657994_fill_path" d="M0.31816,3.81234l1.53855,0.39682l0.54984,1.51074c0.05583,0.15306 0.19239,0.26078 0.35234,0.27781c0.01471,0.00153 0.02942,0.0023 0.04414,0.0023c0.14505,0 0.27991,-0.07538 0.35724,-0.19974l0.84767,-1.36169l1.5863,-0.06371c0.1607,-0.00651 0.30387,-0.10485 0.36931,-0.25389c0.06526,-0.14905 0.04168,-0.32277 -0.06111,-0.44828l-1.01479,-1.23846l0.43043,-1.54997c0.04357,-0.15689 -0.00453,-0.32545 -0.12392,-0.43451c-0.11959,-0.10925 -0.28972,-0.14005 -0.43911,-0.07978l-1.47462,0.59618l-1.32034,-0.89427l-0.00019,0.00019c-0.13373,-0.0905 -0.30651,-0.09624 -0.44571,-0.01454c-0.1392,0.08151 -0.22068,0.2361 -0.21031,0.39873l0.10336,1.60713l-1.24637,0.99718v0.00019c-0.12638,0.10102 -0.18503,0.26595 -0.15165,0.42551c0.03339,0.15957 0.15335,0.28603 0.30914,0.32622zM2.10476,2.59666c0.10921,-0.08724 0.169,-0.22347 0.15995,-0.36429l-0.06206,-0.96525l0.79296,0.53726c0.11562,0.07826 0.26199,0.09394 0.3912,0.04171l0.88577,-0.35817l-0.25879,0.93101c-0.03772,0.13565 -0.00717,0.28164 0.08167,0.39012l0.60962,0.74371l-0.95269,0.03827c-0.13901,0.00555 -0.26633,0.08016 -0.34065,0.19955l-0.50908,0.81772l-0.33027,-0.90725c-0.0481,-0.1324 -0.1575,-0.23227 -0.29217,-0.2669l-0.92425,-0.23839z" fill-rule="nonzero" fill="rgb(244, 242, 253)" fill-opacity="1" style="mix-blend-mode:NORMAL"></path></g></g></g></g><g transform="matrix(0.8894546639165092,0.4570234138828882,-0.4570234138828882,0.8894546639165092,38.7,3.96)"><g id="44657995" opacity="0" style="mix-blend-mode:normal"><g><g><path id="44657995_fill_path" d="M0.31816,3.81234l1.53855,0.39682l0.54984,1.51074c0.05583,0.15306 0.19239,0.26078 0.35234,0.27781c0.01471,0.00153 0.02942,0.0023 0.04414,0.0023c0.14505,0 0.27991,-0.07538 0.35724,-0.19974l0.84767,-1.36169l1.5863,-0.06371c0.1607,-0.00651 0.30387,-0.10485 0.36931,-0.25389c0.06526,-0.14905 0.04168,-0.32277 -0.06111,-0.44828l-1.01479,-1.23846l0.43043,-1.54997c0.04357,-0.15689 -0.00453,-0.32545 -0.12392,-0.43451c-0.11959,-0.10925 -0.28972,-0.14005 -0.43911,-0.07978l-1.47462,0.59618l-1.32034,-0.89427l-0.00019,0.00019c-0.13373,-0.0905 -0.30651,-0.09624 -0.44571,-0.01454c-0.1392,0.08151 -0.22068,0.2361 -0.21031,0.39873l0.10336,1.60713l-1.24637,0.99718v0.00019c-0.12638,0.10102 -0.18503,0.26595 -0.15165,0.42551c0.03339,0.15957 0.15335,0.28603 0.30914,0.32622zM2.10476,2.59666c0.10921,-0.08724 0.169,-0.22347 0.15995,-0.36429l-0.06206,-0.96525l0.79296,0.53726c0.11562,0.07826 0.26199,0.09394 0.3912,0.04171l0.88577,-0.35817l-0.25879,0.93101c-0.03772,0.13565 -0.00717,0.28164 0.08167,0.39012l0.60962,0.74371l-0.95269,0.03827c-0.13901,0.00555 -0.26633,0.08016 -0.34065,0.19955l-0.50908,0.81772l-0.33027,-0.90725c-0.0481,-0.1324 -0.1575,-0.23227 -0.29217,-0.2669l-0.92425,-0.23839z" fill-rule="nonzero" fill="rgb(244, 242, 253)" fill-opacity="1" style="mix-blend-mode:NORMAL"></path></g></g></g></g></g></g></g></g><g transform="matrix(1,0,0,1,10,44)"><g id="44657996" opacity="0" style="mix-blend-mode:normal"><g><g><path id="44657996_fill_path" d="M31.60817,11.37588c-0.04185,0.26632 -0.17729,0.50865 -0.38203,0.68384c-0.20474,0.17515 -0.46547,0.27113 -0.73475,0.27086c-0.05972,0 -0.11943,-0.0048 -0.17835,-0.01466c-0.29618,-0.04665 -0.56198,-0.20927 -0.73817,-0.45187c-0.17648,-0.2426 -0.24899,-0.54545 -0.20181,-0.84163c0.13703,-0.87015 -0.04399,-1.76057 -0.50973,-2.50836c-0.466,-0.74779 -1.18552,-1.30257 -2.02715,-1.56273c-0.84163,-0.26019 -1.74884,-0.20874 -2.55552,0.14556c-0.37003,0.16155 -0.79815,0.1133 -1.12315,-0.12637c-0.32471,-0.23966 -0.49719,-0.63449 -0.45214,-1.03572c0.04505,-0.40122 0.30098,-0.74779 0.67101,-0.90933c1.30441,-0.57077 2.77098,-0.65288 4.13108,-0.23113c1.35989,0.42148 2.52276,1.31881 3.27587,2.52726c0.75284,1.20845 1.04582,2.64779 0.82484,4.0543zM33.84245,11.72938v0.00027c0.38709,-2.45874 -0.3647,-4.96021 -2.04319,-6.79831c-1.67847,-1.8379 -4.10152,-2.81336 -6.58504,-2.65045c-2.48386,0.16262 -4.75888,1.44575 -6.18334,3.48703c-0.21141,0.30365 -0.55798,0.48493 -0.92803,0.48493c-0.37005,0 -0.7166,-0.18128 -0.92803,-0.48493c-1.54198,-2.19592 -4.0586,-3.50115 -6.7418,-3.49631c-2.39159,0.00107 -4.66293,1.0493 -6.21528,2.86877c-1.55208,1.81947 -2.23005,4.2273 -1.85441,6.58934c0.98242,6.19958 9.58192,14.16131 15.73918,17.8296c6.1585,-3.66829 14.75779,-11.6307 15.73987,-17.8296zM30.50605,1.14491l0.00027,0.00027c-2.02339,-1.0336 -4.32838,-1.37989 -6.56614,-0.9872c-2.23776,0.39295 -4.28675,1.50356 -5.83726,3.16442c-1.55024,-1.66114 -3.59922,-2.772 -5.83698,-3.16497c-2.23776,-0.39269 -4.54268,-0.04612 -6.56587,0.98774c-1.9645,1.00289 -3.56114,2.60138 -4.56192,4.56697c-1.00105,1.96532 -1.3543,4.19693 -1.00985,6.37552c0.6758,4.24996 4.09722,8.54387 6.85066,11.40412c3.12873,3.25109 6.68291,6.06391 10.56604,8.36166c0.34657,0.19541 0.7699,0.19541 1.11646,0c3.88293,-2.29748 7.4369,-5.11001 10.56536,-8.36166c2.75521,-2.85997 6.17481,-7.15368 6.85134,-11.40343c0.34444,-2.17859 -0.00933,-4.41021 -1.01013,-6.37552c-1.00078,-1.96559 -2.59763,-3.56408 -4.56192,-4.56697z" fill-rule="evenodd" fill="rgb(244, 242, 253)" fill-opacity="1" style="mix-blend-mode:NORMAL"></path></g></g></g></g></g></g></g></g><g transform="matrix(1,0,0,1,7,15)"><g id="44657997" opacity="1" style="mix-blend-mode:normal"><g><g><path id="44657997_fill_path" d="M0.90067,0.00501c0.54956,-0.05477 1.03959,0.34606 1.09438,0.89561c0.05514,0.54956 -0.34606,1.03959 -0.89561,1.09438c-0.54956,0.05477 -1.03959,-0.34606 -1.09438,-0.89561c-0.05514,-0.54919 0.34606,-1.03922 0.89561,-1.09438z" fill-rule="nonzero" fill="rgb(244, 242, 253)" fill-opacity="1" style="mix-blend-mode:NORMAL"></path></g></g></g></g><g transform="matrix(1,0,0,1,41,37)"><g id="44657998" opacity="1" style="mix-blend-mode:normal"><g><g><path id="44657998_fill_path" d="M0.90067,0.00501c0.54956,-0.05477 1.03959,0.34606 1.09438,0.89561c0.05514,0.54956 -0.34606,1.03959 -0.89561,1.09438c-0.54956,0.05477 -1.03959,-0.34606 -1.09438,-0.89561c-0.05514,-0.54919 0.34606,-1.03922 0.89561,-1.09438z" fill-rule="nonzero" fill="rgb(244, 242, 253)" fill-opacity="1" style="mix-blend-mode:NORMAL"></path></g></g></g></g></g></g></g></g></g></g></g></g><animate href="#44657990" attributeName="opacity" values="0;0;1;1" dur="5s" repeatCount="indefinite" calcMode="spline" keyTimes="0;0.44;0.6;1" keySplines="0.5 0.35 0.15 1;0.5 0.35 0.15 1;0.5 0.35 0.15 1" additive="sum" fill="freeze"></animate><animate href="#44657991" attributeName="opacity" values="0;0;1;1" dur="5s" repeatCount="indefinite" calcMode="spline" keyTimes="0;0.44;0.6;1" keySplines="0.5 0.35 0.15 1;0.5 0.35 0.15 1;0.5 0.35 0.15 1" additive="sum" fill="freeze"></animate><animate href="#44657992" attributeName="opacity" values="0;0;1;1" dur="5s" repeatCount="indefinite" calcMode="spline" keyTimes="0;0.43;0.59;1" keySplines="0.5 0.35 0.15 1;0.5 0.35 0.15 1;0.5 0.35 0.15 1" additive="sum" fill="freeze"></animate><animate href="#44657993" attributeName="opacity" values="0;0;1;1" dur="5s" repeatCount="indefinite" calcMode="spline" keyTimes="0;0.44;0.6;1" keySplines="0.5 0.35 0.15 1;0.5 0.35 0.15 1;0.5 0.35 0.15 1" additive="sum" fill="freeze"></animate><animateTransform href="#44657994" attributeName="transform" type="translate" values="0 0;0 0;6 0;6 0" dur="5s" repeatCount="indefinite" calcMode="spline" keyTimes="0;0.17;0.33;1" keySplines="0.5 0.35 0.15 1;0.5 0.35 0.15 1;0.5 0.35 0.15 1" additive="sum" fill="freeze"></animateTransform><animate href="#44657994" attributeName="opacity" values="0;0;1;1" dur="5s" repeatCount="indefinite" calcMode="spline" keyTimes="0;0.17;0.33;1" keySplines="0.5 0.35 0.15 1;0.5 0.35 0.15 1;0.5 0.35 0.15 1" additive="sum" fill="freeze"></animate><animateTransform href="#44657995" attributeName="transform" type="translate" values="0 0;0 0;6 0;6 0" dur="5s" repeatCount="indefinite" calcMode="spline" keyTimes="0;0.17;0.33;1" keySplines="0.5 0.35 0.15 1;0.5 0.35 0.15 1;0.5 0.35 0.15 1" additive="sum" fill="freeze"></animateTransform><animate href="#44657995" attributeName="opacity" values="0;0;1;1" dur="5s" repeatCount="indefinite" calcMode="spline" keyTimes="0;0.17;0.33;1" keySplines="0.5 0.35 0.15 1;0.5 0.35 0.15 1;0.5 0.35 0.15 1" additive="sum" fill="freeze"></animate><animateTransform href="#44657996" attributeName="transform" type="translate" values="0 0;0 -32;0 -32" dur="5s" repeatCount="indefinite" calcMode="spline" keyTimes="0;0.16;1" keySplines="0.5 0.35 0.15 1;0.5 0.35 0.15 1" additive="sum" fill="freeze"></animateTransform><animate href="#44657996" attributeName="opacity" values="0;1;1" dur="5s" repeatCount="indefinite" calcMode="spline" keyTimes="0;0.16;1" keySplines="0.5 0.35 0.15 1;0.5 0.35 0.15 1" additive="sum" fill="freeze"></animate><animateTransform href="#44657997" attributeName="transform" type="translate" values="1.0001 1;1.0001 1;1.0001 1;1.0001 1" dur="5s" repeatCount="indefinite" calcMode="spline" keyTimes="0;0.3;0.46;1" keySplines="0.5 0.35 0.15 1;0.5 0.35 0.15 1;0.5 0.35 0.15 1" additive="sum" fill="freeze"></animateTransform><animateTransform href="#44657997" attributeName="transform" type="scale" values="0 0;0 0;1 1;1 1" dur="5s" repeatCount="indefinite" calcMode="spline" keyTimes="0;0.3;0.46;1" keySplines="0.5 0.35 0.15 1;0.5 0.35 0.15 1;0.5 0.35 0.15 1" additive="sum" fill="freeze"></animateTransform><animateTransform href="#44657997" attributeName="transform" type="translate" values="-1.0001 -1;-1.0001 -1;-1.0001 -1;-1.0001 -1" dur="5s" repeatCount="indefinite" calcMode="spline" keyTimes="0;0.3;0.46;1" keySplines="0.5 0.35 0.15 1;0.5 0.35 0.15 1;0.5 0.35 0.15 1" additive="sum" fill="freeze"></animateTransform><animateTransform href="#44657998" attributeName="transform" type="translate" values="1.0001 1;1.0001 1;1.0001 1;1.0001 1" dur="5s" repeatCount="indefinite" calcMode="spline" keyTimes="0;0.3;0.46;1" keySplines="0.5 0.35 0.15 1;0.5 0.35 0.15 1;0.5 0.35 0.15 1" additive="sum" fill="freeze"></animateTransform><animateTransform href="#44657998" attributeName="transform" type="scale" values="0 0;0 0;1 1;1 1" dur="5s" repeatCount="indefinite" calcMode="spline" keyTimes="0;0.3;0.46;1" keySplines="0.5 0.35 0.15 1;0.5 0.35 0.15 1;0.5 0.35 0.15 1" additive="sum" fill="freeze"></animateTransform><animateTransform href="#44657998" attributeName="transform" type="translate" values="-1.0001 -1;-1.0001 -1;-1.0001 -1;-1.0001 -1" dur="5s" repeatCount="indefinite" calcMode="spline" keyTimes="0;0.3;0.46;1" keySplines="0.5 0.35 0.15 1;0.5 0.35 0.15 1;0.5 0.35 0.15 1" additive="sum" fill="freeze"></animateTransform></svg>