<svg id="42418069" viewBox="0 0 56 56" xmlns="http://www.w3.org/2000/svg" xmlns:xlink="http://www.w3.org/1999/xlink"><g transform="matrix(1,0,0,1,0,0)"><g id="42418069" opacity="1" style="mix-blend-mode:normal"><g><g><g transform="matrix(1,0,0,1,0,0)"><g id="42267474" opacity="1" style="mix-blend-mode:normal"><g><g><g transform="matrix(1,0,0,1,0,0)"><g id="42267475" opacity="1" style="mix-blend-mode:normal"><g><g></g></g></g></g><g transform="matrix(1,0,0,1,6,7)"><g id="42267476" opacity="1" style="mix-blend-mode:normal"><g><g><g transform="matrix(1,0,0,1,15.485600000000002,1.0873)"><g id="42267477" opacity="1" style="mix-blend-mode:normal"><g><g><path id="42267477_fill_path" d="M0.41931,8.64665c0.06094,0.02031 0.11531,0.02719 0.17656,0.02719c0.25125,0 0.48187,-0.16282 0.56344,-0.41406c0.06781,-0.06781 0.38687,-0.12218 0.57687,-0.15625c0.50906,-0.08813 1.2828,-0.21718 1.50688,-0.97064c0.23094,-0.74656 -0.33938,-1.28968 -0.71282,-1.6428c-0.1425,-0.13562 -0.37344,-0.35969 -0.40063,-0.4275c0.06781,-0.06781 0.38687,-0.12218 0.57687,-0.15625c0.50906,-0.08813 1.2828,-0.21718 1.50688,-0.96376c0.23094,-0.74656 -0.33937,-1.28968 -0.71281,-1.6428c-0.13531,-0.12875 -0.37313,-0.34594 -0.40031,-0.41375c0.06781,-0.06781 0.38687,-0.12218 0.57687,-0.14938c0.50906,-0.08813 1.2828,-0.21718 1.50688,-0.96376c0.095,-0.31218 -0.07469,-0.65156 -0.39375,-0.74656c-0.31218,-0.095 -0.63813,0.07469 -0.74,0.38687c-0.06781,0.06781 -0.38687,0.12218 -0.57687,0.14938c-0.50906,0.08813 -1.2828,0.21718 -1.50688,0.96376c-0.23094,0.74656 0.33938,1.28968 0.71282,1.6428c0.1425,0.13562 0.37344,0.35313 0.40063,0.42094c-0.06781,0.06781 -0.38687,0.12218 -0.57687,0.15625c-0.50906,0.08813 -1.2828,0.21718 -1.50688,0.96376c-0.22406,0.74656 0.33938,1.28968 0.71282,1.6428c0.1425,0.13562 0.37344,0.35969 0.40062,0.4275c-0.06781,0.06781 -0.38687,0.12218 -0.57687,0.15625c-0.50906,0.08813 -1.2828,0.21718 -1.50688,0.96376c-0.09531,0.31187 0.08094,0.65125 0.39344,0.74625z" fill-rule="nonzero" fill="rgb(244, 242, 253)" fill-opacity="1" style="mix-blend-mode:NORMAL"></path></g></g></g></g><g transform="matrix(1,0,0,1,26.77,13.29)"><g id="42267478" opacity="0" style="mix-blend-mode:normal"><g><g><path id="42267478_fill_path" d="M6.40063,1.93966c-0.0475,-0.32594 -0.33938,-0.54969 -0.66531,-0.50218c-0.08813,-0.03406 -0.27844,-0.30531 -0.38687,-0.46156c-0.29187,-0.4275 -0.73313,-1.07248 -1.52064,-0.96376c-0.78062,0.10875 -1.02496,0.85528 -1.18784,1.34408c-0.06094,0.18313 -0.16281,0.49562 -0.21718,0.54969c-0.08813,-0.03406 -0.27844,-0.30531 -0.38687,-0.46156c-0.29187,-0.4275 -0.74656,-1.07248 -1.52064,-0.96376c-0.32594,0.0475 -0.55656,0.34625 -0.50906,0.67187c0.0475,0.32594 0.33938,0.54969 0.66531,0.50218c0.08813,0.03406 0.27844,0.30531 0.38687,0.46156c0.27156,0.39375 0.67187,0.97752 1.34408,0.97752c0.05438,0 0.11531,-0.00687 0.17656,-0.01344c0.78062,-0.10875 1.02496,-0.85528 1.18784,-1.34408c0.06094,-0.18313 0.16282,-0.49562 0.21719,-0.54969c0.08813,0.03406 0.27844,0.30531 0.38687,0.46156c0.29187,0.4275 0.74656,1.07248 1.52064,0.96376c0.32594,-0.04781 0.55656,-0.34656 0.50906,-0.67218z" fill-rule="nonzero" fill="rgb(244, 242, 253)" fill-opacity="1" style="mix-blend-mode:NORMAL"></path></g></g></g></g><g transform="matrix(1,0,0,1,29.86,6.65)"><g id="42267479" opacity="0" style="mix-blend-mode:normal"><g><g><path id="42267479_fill_path" d="M0.59387,1.84292c0.14938,0 0.30531,-0.06094 0.42094,-0.17656l0.65156,-0.65156c0.23094,-0.23094 0.23094,-0.61094 0,-0.8416c-0.23094,-0.23094 -0.61094,-0.23094 -0.8416,0l-0.65156,0.65156c-0.23094,0.23094 -0.23094,0.61094 0,0.8416c0.11531,0.11531 0.26469,0.17656 0.42062,0.17656z" fill-rule="nonzero" fill="rgb(244, 242, 253)" fill-opacity="1" style="mix-blend-mode:NORMAL"></path></g></g></g></g><g transform="matrix(1,0,0,1,27.47,9.03)"><g id="42267480" opacity="0" style="mix-blend-mode:normal"><g><g><path id="42267480_fill_path" d="M1.0148,1.66636l0.65156,-0.65156c0.23094,-0.23094 0.23094,-0.61094 0,-0.8416c-0.23094,-0.23094 -0.61094,-0.23094 -0.8416,0l-0.65156,0.65156c-0.23094,0.23094 -0.23094,0.61094 0,0.8416c0.11531,0.11531 0.27156,0.17656 0.42094,0.17656c0.14906,0 0.29844,-0.06125 0.42062,-0.17656z" fill-rule="nonzero" fill="rgb(244, 242, 253)" fill-opacity="1" style="mix-blend-mode:NORMAL"></path></g></g></g></g><g transform="matrix(1,0,0,1,29.85,9.03)"><g id="42267481" opacity="0" style="mix-blend-mode:normal"><g><g><path id="42267481_fill_path" d="M0.82449,1.66636c0.11531,0.11531 0.27156,0.17656 0.42094,0.17656c0.14938,0 0.30531,-0.05438 0.42094,-0.17656c0.23094,-0.23094 0.23094,-0.61094 0,-0.8416l-0.65156,-0.65156c-0.23094,-0.23094 -0.61094,-0.23094 -0.8416,0c-0.23094,0.23094 -0.23094,0.61094 0,0.8416z" fill-rule="nonzero" fill="rgb(244, 242, 253)" fill-opacity="1" style="mix-blend-mode:NORMAL"></path></g></g></g></g><g transform="matrix(1,0,0,1,27.47,6.65)"><g id="42267482" opacity="0" style="mix-blend-mode:normal"><g><g><path id="42267482_fill_path" d="M0.1732,1.0148l0.65156,0.65156c0.11531,0.11531 0.27156,0.17656 0.42094,0.17656c0.14938,0 0.30531,-0.05438 0.42094,-0.17656c0.23094,-0.23094 0.23094,-0.61094 0,-0.8416l-0.65156,-0.65156c-0.23094,-0.23094 -0.61094,-0.23094 -0.8416,0c-0.23125,0.23062 -0.23125,0.60375 -0.00031,0.8416z" fill-rule="nonzero" fill="rgb(244, 242, 253)" fill-opacity="1" style="mix-blend-mode:NORMAL"></path></g></g></g></g><g transform="matrix(1,0,0,1,25.13,10.6267)"><g id="42267483" opacity="1" style="mix-blend-mode:normal"><g><g><path id="42267483_fill_path" d="M6.26527,1.34005c0.07469,-0.21718 0.02031,-0.44813 -0.1425,-0.61094c-0.16282,-0.15625 -0.39375,-0.21031 -0.61094,-0.1425l-1.60184,0.54313l-1.35096,-1.01128c-0.18313,-0.13562 -0.42094,-0.15625 -0.62438,-0.05438c-0.20375,0.10187 -0.32594,0.31218 -0.32594,0.53625l0.02031,1.69032l-1.37784,0.97752c-0.18313,0.12906 -0.27844,0.35313 -0.24438,0.57687c0.03406,0.22406 0.19687,0.40718 0.40719,0.475l1.6156,0.50218l0.50218,1.6156c0.06781,0.21718 0.25125,0.37344 0.475,0.40718c0.03406,0.00688 0.06094,0.00688 0.095,0.00688c0.19,0 0.37344,-0.095 0.48187,-0.25125l0.97752,-1.37784l1.69064,0.02031c0.23094,0.01344 0.43438,-0.12218 0.53625,-0.32594c0.10187,-0.20375 0.08156,-0.44125 -0.05438,-0.62438l-1.01128,-1.35096zM4.26311,4.02821c-0.20375,0.02719 -0.38,0.08813 -0.49563,0.25125l-0.46156,0.65156l-0.2375,-0.76031c-0.06094,-0.19 -0.20375,-0.3325 -0.39375,-0.39375l-0.76031,-0.2375l0.65156,-0.46156c0.15625,-0.11531 0.25125,-0.29875 0.25125,-0.48875l-0.00688,-0.80096l0.63813,0.475c0.15625,0.11531 0.35969,0.14938 0.54313,0.08813l0.75344,-0.25782l-0.25781,0.75344c-0.06094,0.18313 -0.02719,0.38687 0.08813,0.54313l0.475,0.63813z" fill-rule="nonzero" fill="rgb(244, 242, 253)" fill-opacity="1" style="mix-blend-mode:NORMAL"></path></g></g></g></g><g transform="matrix(1,0,0,1,0,42.6078)"><g id="42267484" opacity="0" style="mix-blend-mode:normal"><g><g><path id="42267484_fill_path" d="M36.94089,13.02566c-3.71968,-0.82128 -7.42592,0.33938 -10.0192,2.7628c-0.79406,-0.90968 -1.64936,-1.82592 -2.55904,-2.7356c-0.67187,-0.67187 -1.34408,-1.31 -2.01592,-1.92096c-0.27156,0.29187 -0.55656,0.56344 -0.85528,0.82816c0.67875,0.61094 1.35752,1.2556 2.03624,1.93472c0.91624,0.91624 1.7784,1.83936 2.57248,2.74904c-0.99096,1.1472 -1.7444,2.5116 -2.20592,4.03184c-1.1472,-0.95032 -2.39624,-2.0772 -3.73344,-3.4144c-1.3372,-1.3372 -2.46408,-2.58624 -3.4144,-3.73344c5.51184,-1.66968 8.9128,-7.33784 7.65,-13.06c-0.06781,-0.31906 -0.38687,-0.52282 -0.70594,-0.45469c-0.31906,0.06781 -0.52282,0.38687 -0.45469,0.70594c0.74,3.34656 -0.31218,6.67936 -2.50472,8.9944c-1.2828,-1.07248 -2.53184,-2.00904 -3.67216,-2.72184c-2.5184,-1.5884 -4.14064,-1.9684 -4.95504,-1.15408c-0.22406,0.22406 -0.34625,0.51594 -0.38687,0.85528l-11.6752,29.9072c-0.08813,0.21718 -0.03406,0.46844 0.13562,0.63813c0.11562,0.11531 0.265,0.17656 0.42094,0.17656c0.07469,0 0.1425,-0.01344 0.21718,-0.04063l29.9008,-11.6688c0.33938,-0.04062 0.63125,-0.16282 0.85528,-0.38687c0.81472,-0.81472 0.43438,-2.43 -1.15408,-4.95504c-0.57687,-0.90968 -1.28968,-1.90064 -2.1044,-2.91184c-0.285,0.27844 -0.55656,0.57031 -0.81472,0.88248c0.74,0.93 1.38472,1.8328 1.91408,2.66752c1.51376,2.4028 1.45936,3.33968 1.32376,3.48216c-0.02719,0.02719 -0.07469,0.0475 -0.12906,0.06094c-0.06781,-0.00688 -0.13562,0.00687 -0.20375,0.02031c-0.79406,-0.00687 -2.77624,-0.9572 -5.50496,-3.07504c1.30312,-5.19936 6.52312,-8.464 11.7904,-7.30376c0.31906,0.06781 0.63812,-0.12906 0.70593,-0.45469c0.06844,-0.32594 -0.135,-0.63813 -0.45406,-0.70594zM28.61209,25.24406l-3.91656,1.5272c-6.53,-2.2944 -11.7568,-7.52096 -14.0512,-14.0512l1.5272,-3.92344c1.26936,2.91872 4.79904,6.9644 7.13408,9.3064c2.34184,2.34184 6.38752,5.8716 9.3064,7.14096zM16.21049,30.08374c-3.5772,-2.24688 -6.63184,-5.30816 -8.8784,-8.8784l2.66752,-6.83528c2.44376,5.8716 7.1816,10.6032 13.0528,13.0464zM8.73705,33.00246c-1.57472,-1.29656 -3.02752,-2.74904 -4.32376,-4.32376l2.38936,-6.11592c2.13128,3.17 4.88064,5.92592 8.0568,8.0504zM13.21705,6.62486c0.44125,0 1.41872,0.25782 3.20376,1.38472c1.05904,0.67187 2.21968,1.53408 3.42096,2.53184c-1.11312,0.92312 -2.43688,1.60872 -3.91656,1.98216c-2.11784,-2.72872 -3.06128,-4.71096 -3.07504,-5.51184c0.02031,-0.06781 0.02719,-0.13562 0.02031,-0.20375c0.01344,-0.0475 0.03406,-0.095 0.06094,-0.12906c0.04812,-0.02688 0.13625,-0.05406 0.28562,-0.05406zM3.92425,29.93446c1.0928,1.27624 2.28752,2.46408 3.55688,3.55688l-5.83752,2.28064z" fill-rule="nonzero" fill="rgb(244, 242, 253)" fill-opacity="1" style="mix-blend-mode:NORMAL"></path></g></g></g></g><g transform="matrix(1,0,0,1,34,20.11)"><g id="42267485" opacity="0" style="mix-blend-mode:normal"><g><g><path id="42267485_fill_path" d="M0,0.17156l1.7144,-0.17156l0.17156,1.7144l-1.7144,0.17156z" fill-rule="nonzero" fill="rgb(244, 242, 253)" fill-opacity="1" style="mix-blend-mode:NORMAL"></path></g></g></g></g><g transform="matrix(1,0,0,1,23.67,4.05)"><g id="42267486" opacity="0" style="mix-blend-mode:normal"><g><g><path id="42267486_fill_path" d="M2.02287,4.04565c0.51594,0 1.0384,-0.19687 1.43216,-0.59062c0.7875,-0.7875 0.7875,-2.0772 0,-2.8644c-0.7875,-0.7875 -2.0772,-0.7875 -2.8644,0c-0.7875,0.7875 -0.7875,2.0772 0,2.8644c0.39344,0.39375 0.91624,0.59062 1.43216,0.59062zM1.43224,1.42533c0.16282,-0.16282 0.38,-0.24438 0.59063,-0.24438c0.21718,0 0.4275,0.08156 0.59062,0.24438c0.32594,0.32594 0.32594,0.85528 0,1.18784c-0.32594,0.32594 -0.85528,0.32594 -1.18784,0c-0.33282,-0.32562 -0.31938,-0.86184 0.00656,-1.18784z" fill-rule="nonzero" fill="rgb(244, 242, 253)" fill-opacity="1" style="mix-blend-mode:NORMAL"></path></g></g></g></g><g transform="matrix(1,0,0,1,41,18)"><g id="42267487" opacity="0" style="mix-blend-mode:normal"><g><g><path id="42267487_fill_path" d="M0.90067,0.00501c0.54956,-0.05477 1.03959,0.34606 1.09438,0.89561c0.05514,0.54956 -0.34606,1.03959 -0.89561,1.09438c-0.54956,0.05477 -1.03959,-0.34606 -1.09438,-0.89561c-0.05514,-0.54919 0.34606,-1.03922 0.89561,-1.09438z" fill-rule="nonzero" fill="rgb(244, 242, 253)" fill-opacity="1" style="mix-blend-mode:NORMAL"></path></g></g></g></g><g transform="matrix(1,0,0,1,38,23)"><g id="42267488" opacity="0" style="mix-blend-mode:normal"><g><g><path id="42267488_fill_path" d="M0.90067,0.00501c0.54956,-0.05477 1.03959,0.34606 1.09438,0.89561c0.05514,0.54956 -0.34606,1.03959 -0.89561,1.09438c-0.54956,0.05477 -1.03959,-0.34606 -1.09438,-0.89561c-0.05514,-0.54919 0.34606,-1.03922 0.89561,-1.09438z" fill-rule="nonzero" fill="rgb(244, 242, 253)" fill-opacity="1" style="mix-blend-mode:NORMAL"></path></g></g></g></g></g></g></g></g></g></g></g></g></g></g></g></g><animateTransform href="#42267477" attributeName="transform" type="translate" values="2.6052 4.3369;2.6052 4.3369;2.6052 4.3369;2.6052 4.3369" dur="5s" repeatCount="indefinite" calcMode="spline" keyTimes="0;0.27;0.43;1" keySplines="0.5 0.35 0.15 1;0.5 0.35 0.15 1;0.5 0.35 0.15 1" additive="sum"></animateTransform><animateTransform href="#42267477" attributeName="transform" type="scale" values="0 0;0 0;1 1;1 1" dur="5s" repeatCount="indefinite" calcMode="spline" keyTimes="0;0.27;0.43;1" keySplines="0.5 0.35 0.15 1;0.5 0.35 0.15 1;0.5 0.35 0.15 1" additive="sum"></animateTransform><animateTransform href="#42267477" attributeName="transform" type="translate" values="-2.6052 -4.3369;-2.6052 -4.3369;-2.6052 -4.3369;-2.6052 -4.3369" dur="5s" repeatCount="indefinite" calcMode="spline" keyTimes="0;0.27;0.43;1" keySplines="0.5 0.35 0.15 1;0.5 0.35 0.15 1;0.5 0.35 0.15 1" additive="sum"></animateTransform><animateTransform href="#42267478" attributeName="transform" type="translate" values="0 0;0 0;6.406800000000004 0;6.406800000000004 0" dur="5s" repeatCount="indefinite" calcMode="spline" keyTimes="0;0.25;0.41;1" keySplines="0.5 0.35 0.15 1;0.5 0.35 0.15 1;0.5 0.35 0.15 1" additive="sum"></animateTransform><animateTransform href="#42267478" attributeName="transform" type="translate" values="3.2034 1.5469;3.2034 1.5469;3.2034 1.5469;3.2034 1.5469" dur="5s" repeatCount="indefinite" calcMode="spline" keyTimes="0;0.25;0.41;1" keySplines="0.5 0.35 0.15 1;0.5 0.35 0.15 1;0.5 0.35 0.15 1" additive="sum"></animateTransform><animateTransform href="#42267478" attributeName="transform" type="scale" values="0 0;0 0;1 1;1 1" dur="5s" repeatCount="indefinite" calcMode="spline" keyTimes="0;0.25;0.41;1" keySplines="0.5 0.35 0.15 1;0.5 0.35 0.15 1;0.5 0.35 0.15 1" additive="sum"></animateTransform><animateTransform href="#42267478" attributeName="transform" type="translate" values="-3.2034 -1.5469;-3.2034 -1.5469;-3.2034 -1.5469;-3.2034 -1.5469" dur="5s" repeatCount="indefinite" calcMode="spline" keyTimes="0;0.25;0.41;1" keySplines="0.5 0.35 0.15 1;0.5 0.35 0.15 1;0.5 0.35 0.15 1" additive="sum"></animateTransform><animate href="#42267478" attributeName="opacity" values="0;0;1;1" dur="5s" repeatCount="indefinite" calcMode="spline" keyTimes="0;0.25;0.41;1" keySplines="0.5 0.35 0.15 1;0.5 0.35 0.15 1;0.5 0.35 0.15 1"></animate><animateTransform href="#42267479" attributeName="transform" type="translate" values="0 0;0 0;0 -1.8429000000000002;0 -1.8429000000000002" dur="5s" repeatCount="indefinite" calcMode="spline" keyTimes="0;0.29;0.41;1" keySplines="0.5 0.35 0.15 1;0.5 0.35 0.15 1;0.5 0.35 0.15 1" additive="sum"></animateTransform><animate href="#42267479" attributeName="opacity" values="0;0;1;1" dur="5s" repeatCount="indefinite" calcMode="spline" keyTimes="0;0.29;0.41;1" keySplines="0.5 0.35 0.15 1;0.5 0.35 0.15 1;0.5 0.35 0.15 1"></animate><animateTransform href="#42267480" attributeName="transform" type="translate" values="0 0;0 0;0 -1.8428999999999993;0 -1.8428999999999993" dur="5s" repeatCount="indefinite" calcMode="spline" keyTimes="0;0.28;0.4;1" keySplines="0.5 0.35 0.15 1;0.5 0.35 0.15 1;0.5 0.35 0.15 1" additive="sum"></animateTransform><animate href="#42267480" attributeName="opacity" values="0;0;1;1" dur="5s" repeatCount="indefinite" calcMode="spline" keyTimes="0;0.28;0.4;1" keySplines="0.5 0.35 0.15 1;0.5 0.35 0.15 1;0.5 0.35 0.15 1"></animate><animateTransform href="#42267481" attributeName="transform" type="translate" values="0 0;0 0;0 -1.8428999999999993;0 -1.8428999999999993" dur="5s" repeatCount="indefinite" calcMode="spline" keyTimes="0;0.27;0.39;1" keySplines="0.5 0.35 0.15 1;0.5 0.35 0.15 1;0.5 0.35 0.15 1" additive="sum"></animateTransform><animate href="#42267481" attributeName="opacity" values="0;0;1;1" dur="5s" repeatCount="indefinite" calcMode="spline" keyTimes="0;0.27;0.39;1" keySplines="0.5 0.35 0.15 1;0.5 0.35 0.15 1;0.5 0.35 0.15 1"></animate><animateTransform href="#42267482" attributeName="transform" type="translate" values="0 0;0 0;0 -1.8428999999999993;0 -1.8428999999999993" dur="5s" repeatCount="indefinite" calcMode="spline" keyTimes="0;0.25;0.37;1" keySplines="0.5 0.35 0.15 1;0.5 0.35 0.15 1;0.5 0.35 0.15 1" additive="sum"></animateTransform><animate href="#42267482" attributeName="opacity" values="0;0;1;1" dur="5s" repeatCount="indefinite" calcMode="spline" keyTimes="0;0.25;0.37;1" keySplines="0.5 0.35 0.15 1;0.5 0.35 0.15 1;0.5 0.35 0.15 1"></animate><animateTransform href="#42267483" attributeName="transform" type="translate" values="3.4262 3.426;3.4262 3.426;3.4262 3.426;3.4262 3.426" dur="5s" repeatCount="indefinite" calcMode="spline" keyTimes="0;0.27;0.43;1" keySplines="0.5 0.35 0.15 1;0.5 0.35 0.15 1;0.5 0.35 0.15 1" additive="sum"></animateTransform><animateTransform href="#42267483" attributeName="transform" type="scale" values="0 0;0 0;1 1;1 1" dur="5s" repeatCount="indefinite" calcMode="spline" keyTimes="0;0.27;0.43;1" keySplines="0.5 0.35 0.15 1;0.5 0.35 0.15 1;0.5 0.35 0.15 1" additive="sum"></animateTransform><animateTransform href="#42267483" attributeName="transform" type="translate" values="-3.4262 -3.426;-3.4262 -3.426;-3.4262 -3.426;-3.4262 -3.426" dur="5s" repeatCount="indefinite" calcMode="spline" keyTimes="0;0.27;0.43;1" keySplines="0.5 0.35 0.15 1;0.5 0.35 0.15 1;0.5 0.35 0.15 1" additive="sum"></animateTransform><animateTransform href="#42267484" attributeName="transform" type="translate" values="0 0;0 -37.414699999999996;0 -37.414699999999996" dur="5s" repeatCount="indefinite" calcMode="spline" keyTimes="0;0.3;1" keySplines="0.5 0.35 0.15 1;0.5 0.35 0.15 1" additive="sum"></animateTransform><animate href="#42267484" attributeName="opacity" values="0;1;1" dur="5s" repeatCount="indefinite" calcMode="spline" keyTimes="0;0.3;1" keySplines="0.5 0.35 0.15 1;0.5 0.35 0.15 1"></animate><animateTransform href="#42267485" attributeName="transform" type="translate" values="0 0;0 0;0 1.8859999999999992;0 1.8859999999999992" dur="5s" repeatCount="indefinite" calcMode="spline" keyTimes="0;0.3;0.46;1" keySplines="0.5 0.35 0.15 1;0.5 0.35 0.15 1;0.5 0.35 0.15 1" additive="sum"></animateTransform><animate href="#42267485" attributeName="opacity" values="0;0;1;1" dur="5s" repeatCount="indefinite" calcMode="spline" keyTimes="0;0.3;0.46;1" keySplines="0.5 0.35 0.15 1;0.5 0.35 0.15 1;0.5 0.35 0.15 1"></animate><animateTransform href="#42267486" attributeName="transform" type="translate" values="0 0;0 0;0 -4.0457;0 -4.0457" dur="5s" repeatCount="indefinite" calcMode="spline" keyTimes="0;0.28;0.44;1" keySplines="0.5 0.35 0.15 1;0.5 0.35 0.15 1;0.5 0.35 0.15 1" additive="sum"></animateTransform><animate href="#42267486" attributeName="opacity" values="0;0;0.0145;1;1" dur="5s" repeatCount="indefinite" calcMode="spline" keyTimes="0;0.28;0.44;0.58;1" keySplines="0.5 0.35 0.15 1;0.5 0.35 0.15 1;0.5 0.35 0.15 1;0.5 0.35 0.15 1"></animate><animateTransform href="#42267487" attributeName="transform" type="translate" values="0 0;0 0;0 2;0 2" dur="5s" repeatCount="indefinite" calcMode="spline" keyTimes="0;0.28;0.44;1" keySplines="0.5 0.35 0.15 1;0.5 0.35 0.15 1;0.5 0.35 0.15 1" additive="sum"></animateTransform><animate href="#42267487" attributeName="opacity" values="0;0;1;1" dur="5s" repeatCount="indefinite" calcMode="spline" keyTimes="0;0.28;0.44;1" keySplines="0.5 0.35 0.15 1;0.5 0.35 0.15 1;0.5 0.35 0.15 1"></animate><animateTransform href="#42267488" attributeName="transform" type="translate" values="0 0;0 0;0 2;0 2" dur="5s" repeatCount="indefinite" calcMode="spline" keyTimes="0;0.27;0.43;1" keySplines="0.5 0.35 0.15 1;0.5 0.35 0.15 1;0.5 0.35 0.15 1" additive="sum"></animateTransform><animate href="#42267488" attributeName="opacity" values="0;0;1;1" dur="5s" repeatCount="indefinite" calcMode="spline" keyTimes="0;0.27;0.43;1" keySplines="0.5 0.35 0.15 1;0.5 0.35 0.15 1;0.5 0.35 0.15 1"></animate></svg>