<svg width="18" height="18" viewBox="0 0 18 18" fill="none" xmlns="http://www.w3.org/2000/svg">
<path fill-rule="evenodd" clip-rule="evenodd" d="M11 5H3C1.89543 5 1 5.89543 1 7V15C1 16.1046 1.89543 17 3 17H11C12.1046 17 13 16.1046 13 15V7C13 5.89543 12.1046 5 11 5ZM3 4C1.34315 4 0 5.34315 0 7V15C0 16.6569 1.34315 18 3 18H11C12.6569 18 14 16.6569 14 15V7C14 5.34315 12.6569 4 11 4H3Z" fill="black"/>
<path fill-rule="evenodd" clip-rule="evenodd" d="M15 1H7C5.89543 1 5 1.39543 5 2.5C5 3 4 3 4 2.5C4 0.843146 5.34315 0 7 0H15C16.6569 0 18 1.34315 18 3V11C18 12.6569 17.1569 14 15.5 14C15 14 15 13 15.5 13C16.6046 13 17 12.1046 17 11V3C17 1.89543 16.1046 1 15 1Z" fill="black"/>
</svg> 