<svg width="18" height="17" viewBox="0 0 18 17" fill="none" xmlns="http://www.w3.org/2000/svg">
<path fill-rule="evenodd" clip-rule="evenodd" d="M14.95 3C14.7184 4.14112 13.7095 5 12.5 5C11.2905 5 10.2816 4.14112 10.05 3H0.5C0.223858 3 0 2.77614 0 2.5C0 2.22386 0.223858 2 0.5 2H10.05C10.2816 0.85888 11.2905 0 12.5 0C13.7095 0 14.7184 0.85888 14.95 2H17.5C17.7761 2 18 2.22386 18 2.5C18 2.77614 17.7761 3 17.5 3H14.95ZM11 2.5C11 3.32843 11.6716 4 12.5 4C13.3284 4 14 3.32843 14 2.5C14 1.67157 13.3284 1 12.5 1C11.6716 1 11 1.67157 11 2.5Z" fill="black"/>
<path fill-rule="evenodd" clip-rule="evenodd" d="M14.95 15C14.7184 16.1411 13.7095 17 12.5 17C11.2905 17 10.2816 16.1411 10.05 15H0.5C0.223858 15 0 14.7761 0 14.5C0 14.2239 0.223858 14 0.5 14H10.05C10.2816 12.8589 11.2905 12 12.5 12C13.7095 12 14.7184 12.8589 14.95 14H17.5C17.7761 14 18 14.2239 18 14.5C18 14.7761 17.7761 15 17.5 15H14.95ZM11 14.5C11 15.3284 11.6716 16 12.5 16C13.3284 16 14 15.3284 14 14.5C14 13.6716 13.3284 13 12.5 13C11.6716 13 11 13.6716 11 14.5Z" fill="black"/>
<path fill-rule="evenodd" clip-rule="evenodd" d="M5.5 11C6.70948 11 7.71836 10.1411 7.94999 9H17.5C17.7761 9 18 8.77614 18 8.5C18 8.22386 17.7761 8 17.5 8H7.94999C7.71836 6.85888 6.70948 6 5.5 6C4.29052 6 3.28164 6.85888 3.05001 8H0.5C0.223858 8 0 8.22386 0 8.5C0 8.77614 0.223858 9 0.5 9H3.05001C3.28164 10.1411 4.29052 11 5.5 11ZM5.5 10C4.67157 10 4 9.32843 4 8.5C4 7.67157 4.67157 7 5.5 7C6.32843 7 7 7.67157 7 8.5C7 9.32843 6.32843 10 5.5 10Z" fill="black"/>
</svg>
