<svg width="18" height="20" viewBox="0 0 18 20" fill="none" xmlns="http://www.w3.org/2000/svg">
<path fill-rule="evenodd" clip-rule="evenodd" d="M9 0.999758C8.54389 0.392672 7.8178 0 7 0C5.61929 0 4.5 1.11929 4.5 2.5C4.5 3.0628 4.68597 3.58217 4.99982 4H2C0.895431 4 0 4.89543 0 6V8C0 8.74028 0.402199 9.38663 1 9.73244V18C1 19.1046 1.89543 20 3 20H15C16.1046 20 17 19.1046 17 18V9.73244C17.5978 9.38663 18 8.74028 18 8V6C18 4.89543 17.1046 4 16 4H13.0002C13.314 3.58217 13.5 3.0628 13.5 2.5C13.5 1.11929 12.3807 0 11 0C10.1822 0 9.45612 0.392672 9 0.999758ZM11 4C11.8284 4 12.5 3.32843 12.5 2.5C12.5 1.67157 11.8284 1 11 1C10.1716 1 9.5 1.67157 9.5 2.5V4H11ZM8.5 2.5C8.5 1.67157 7.82843 1 7 1C6.17157 1 5.5 1.67157 5.5 2.5C5.5 3.32843 6.17157 4 7 4H8.5V2.5ZM2 5C1.44772 5 1 5.44772 1 6V8C1 8.55228 1.44772 9 2 9H8.5V5.5L6.35355 7.64645C6.15829 7.84171 5.84171 7.84171 5.64645 7.64645C5.45118 7.45118 5.45118 7.1346 5.64645 6.93934L7.58579 5H2ZM9.5 5.5V9H16C16.5523 9 17 8.55228 17 8V6C17 5.44772 16.5523 5 16 5H10.4142L12.3536 6.93934C12.5488 7.1346 12.5488 7.45118 12.3536 7.64645C12.1583 7.84171 11.8417 7.84171 11.6464 7.64645L9.5 5.5ZM2 10H8.5V19H3C2.44772 19 2 18.5523 2 18L2 10ZM9.5 10V19H15C15.5523 19 16 18.5523 16 18V10H9.5Z" fill="#DD00A0"/>
<path fill-rule="evenodd" clip-rule="evenodd" d="M9 0.999758C8.54389 0.392672 7.8178 0 7 0C5.61929 0 4.5 1.11929 4.5 2.5C4.5 3.0628 4.68597 3.58217 4.99982 4H2C0.895431 4 0 4.89543 0 6V8C0 8.74028 0.402199 9.38663 1 9.73244V18C1 19.1046 1.89543 20 3 20H15C16.1046 20 17 19.1046 17 18V9.73244C17.5978 9.38663 18 8.74028 18 8V6C18 4.89543 17.1046 4 16 4H13.0002C13.314 3.58217 13.5 3.0628 13.5 2.5C13.5 1.11929 12.3807 0 11 0C10.1822 0 9.45612 0.392672 9 0.999758ZM11 4C11.8284 4 12.5 3.32843 12.5 2.5C12.5 1.67157 11.8284 1 11 1C10.1716 1 9.5 1.67157 9.5 2.5V4H11ZM8.5 2.5C8.5 1.67157 7.82843 1 7 1C6.17157 1 5.5 1.67157 5.5 2.5C5.5 3.32843 6.17157 4 7 4H8.5V2.5ZM2 5C1.44772 5 1 5.44772 1 6V8C1 8.55228 1.44772 9 2 9H8.5V5.5L6.35355 7.64645C6.15829 7.84171 5.84171 7.84171 5.64645 7.64645C5.45118 7.45118 5.45118 7.1346 5.64645 6.93934L7.58579 5H2ZM9.5 5.5V9H16C16.5523 9 17 8.55228 17 8V6C17 5.44772 16.5523 5 16 5H10.4142L12.3536 6.93934C12.5488 7.1346 12.5488 7.45118 12.3536 7.64645C12.1583 7.84171 11.8417 7.84171 11.6464 7.64645L9.5 5.5ZM2 10H8.5V19H3C2.44772 19 2 18.5523 2 18L2 10ZM9.5 10V19H15C15.5523 19 16 18.5523 16 18V10H9.5Z" fill="#DD00A0"/>
</svg>
