<svg width="22" height="24" viewBox="0 0 22 24" fill="none" xmlns="http://www.w3.org/2000/svg">
<path d="M21.2287 4.77874L19.3919 4.7687C19.7432 4.24677 20.0443 3.60438 20.0443 2.8817C20.0443 2.29955 19.8436 1.44638 18.89 0.663481C16.3807 -1.37407 12.5666 1.75754 10.6394 3.65457C8.7123 1.75754 4.89816 -1.37407 2.38886 0.663481C1.42528 1.44638 1.23458 2.29955 1.23458 2.8817C1.23458 3.54416 1.48551 4.13636 1.79666 4.62818L0.0501863 4.61814L0 10.7609L0.79294 10.771V24H20.4257V10.9215L21.1785 10.9315L21.2287 4.77874ZM18.9603 22.5245H2.27845V11.062H18.9603V22.5245ZM17.9566 1.83783C18.3581 2.16906 18.5588 2.51033 18.5588 2.87167C18.5588 3.53412 17.9666 4.24677 17.5852 4.60811H11.8439C13.6506 2.87167 16.5313 0.683555 17.9566 1.83783ZM3.34239 1.83783C4.76768 0.673518 7.64836 2.8817 9.45505 4.60811H3.71377C3.33235 4.24677 2.74016 3.53412 2.74016 2.87167C2.74016 2.51033 2.9409 2.16906 3.34239 1.83783ZM1.51562 6.10365L19.7432 6.24417L19.7231 9.436L1.49554 9.29548L1.51562 6.10365Z" fill="#957FEF"/>
</svg>
