<svg width="23" height="23" viewBox="0 0 23 23" fill="none" xmlns="http://www.w3.org/2000/svg">
<path d="M12.9937 22.9435C12.2837 22.9435 11.5736 22.6735 11.0336 22.1335L1.21365 12.3135C0.73365 11.8335 0.44365 11.1835 0.40365 10.5035L0.00364983 2.91355C-0.0363502 2.13355 0.25365 1.36355 0.81365 0.813548C1.36365 0.263548 2.13365 -0.0364521 2.91365 0.00354794L10.5037 0.403548C11.1837 0.443548 11.8337 0.723548 12.3137 1.21355L22.1336 11.0335C22.6537 11.5535 22.9437 12.2535 22.9437 12.9935C22.9437 13.7335 22.6537 14.4235 22.1336 14.9535L14.9436 22.1435C14.4136 22.6735 13.7037 22.9435 12.9937 22.9435ZM2.77365 1.22355C2.36365 1.22355 1.97365 1.38355 1.68365 1.67355C1.37365 1.98355 1.21365 2.40355 1.23365 2.84355L1.63365 10.4335C1.65365 10.8135 1.81365 11.1735 2.08365 11.4435L11.9037 21.2635C12.1937 21.5535 12.5837 21.7135 12.9937 21.7135C13.4037 21.7135 13.7937 21.5535 14.0837 21.2635L21.2736 14.0735C21.5637 13.7935 21.7236 13.4035 21.7236 12.9935C21.7236 12.5835 21.5637 12.1935 21.2736 11.9035L11.4536 2.08355C11.1836 1.81355 10.8236 1.65355 10.4436 1.63355L2.85365 1.23355C2.82365 1.22355 2.79365 1.22355 2.77365 1.22355Z" fill="#957FEF"/>
<path d="M4.61365 2.31348C3.27365 2.31348 2.19365 3.40348 2.19365 4.73348C2.19365 6.07348 3.28365 7.15348 4.61365 7.15348C5.95365 7.15348 7.03365 6.06348 7.03365 4.73348C7.04365 3.40348 5.95365 2.31348 4.61365 2.31348ZM4.61365 5.94348C3.95365 5.94348 3.41365 5.40348 3.41365 4.74348C3.41365 4.08348 3.95365 3.54348 4.61365 3.54348C5.27365 3.54348 5.81365 4.08348 5.81365 4.74348C5.81365 5.40348 5.28365 5.94348 4.61365 5.94348Z" fill="#957FEF"/>
</svg>
